<?xml version="1.0" standalone="no"?>
<!DOCTYPE svg PUBLIC "-//W3C//DTD SVG 20010904//EN"
 "http://www.w3.org/TR/2001/REC-SVG-20010904/DTD/svg10.dtd">
<svg version="1.0" xmlns="http://www.w3.org/2000/svg"
 width="424.000000pt" height="150.000000pt" viewBox="0 0 424.000000 150.000000"
 preserveAspectRatio="xMidYMid meet">

<g transform="translate(0.000000,150.000000) scale(0.100000,-0.100000)"
fill="#000000" stroke="none">
<path d="M625 1484 c-16 -8 -157 -90 -312 -181 -257 -150 -283 -167 -279 -188
3 -18 1 -22 -11 -18 -12 5 -14 0 -8 -25 5 -23 3 -32 -7 -32 -8 0 -5 -5 6 -11
14 -9 15 -13 5 -19 -10 -7 -10 -11 0 -24 8 -9 9 -16 3 -16 -5 0 -9 -11 -8 -25
0 -14 4 -25 9 -25 4 0 7 -5 7 -11 0 -5 -6 -7 -12 -3 -10 5 -10 4 -1 -6 7 -8 9
-19 4 -29 -11 -20 -11 -32 0 -53 5 -10 5 -19 0 -23 -6 -3 -6 -17 -1 -35 6 -21
5 -30 -3 -30 -7 0 -6 -4 3 -10 8 -5 11 -10 5 -10 -5 0 -11 -12 -12 -27 -1 -19
1 -22 8 -12 6 9 9 10 9 2 0 -6 -5 -15 -11 -19 -8 -4 -7 -9 2 -15 9 -5 9 -9 3
-9 -12 0 -12 -48 -1 -67 4 -6 3 -13 0 -17 -10 -9 -11 -46 -2 -46 5 0 6 -7 3
-15 -4 -8 -11 -12 -18 -8 -6 3 -3 -2 6 -13 12 -14 14 -24 7 -37 -6 -10 -6 -17
-1 -17 6 0 9 -7 8 -16 -1 -21 598 -387 635 -387 31 0 622 354 644 386 13 18
15 76 15 359 0 235 -4 345 -12 363 -7 15 -38 40 -77 62 -36 20 -172 98 -301
173 -129 76 -244 140 -255 144 -11 3 -33 -1 -50 -10z m341 -179 c162 -97 294
-182 294 -189 0 -12 -81 -63 -516 -328 l-81 -49 -281 171 c-159 96 -287 168
-294 164 -7 -4 -8 -3 -4 5 4 6 0 14 -8 17 -9 3 -15 16 -14 29 1 13 6 21 10 19
7 -4 202 107 478 272 58 35 109 63 114 64 5 0 141 -79 302 -175z m-629 -397
c153 -94 286 -178 296 -186 16 -14 17 -40 15 -340 -2 -216 -7 -327 -13 -329
-6 -2 -132 71 -279 162 -148 91 -271 164 -274 161 -2 -3 -13 6 -24 20 -19 23
-20 41 -19 347 0 177 0 325 1 330 0 4 4 7 9 7 5 0 135 -77 288 -172z m951
-170 l-3 -332 -289 -179 c-159 -99 -294 -176 -302 -173 -12 5 -14 59 -12 332
l3 327 290 179 c159 98 295 178 302 178 11 0 13 -66 11 -332z"/>
<path d="M660 1276 c0 -8 4 -17 9 -20 5 -4 7 3 4 14 -6 23 -13 26 -13 6z"/>
<path d="M702 1270 c0 -14 2 -19 5 -12 2 6 2 18 0 25 -3 6 -5 1 -5 -13z"/>
<path d="M507 1223 c-4 -3 -7 -27 -7 -51 0 -59 13 -46 14 13 1 25 1 45 0 45 0
0 -4 -3 -7 -7z"/>
<path d="M794 1156 c-3 -7 -4 -33 -1 -57 l4 -44 1 52 c1 30 7 53 15 56 9 4 9
6 -1 6 -7 1 -15 -5 -18 -13z"/>
<path d="M648 953 c7 -3 16 -2 19 1 4 3 -2 6 -13 5 -11 0 -14 -3 -6 -6z"/>
<path d="M678 933 c6 -2 18 -2 25 0 6 3 1 5 -13 5 -14 0 -19 -2 -12 -5z"/>
<path d="M323 773 c9 -2 25 -2 35 0 9 3 1 5 -18 5 -19 0 -27 -2 -17 -5z"/>
<path d="M270 738 c0 -4 24 -7 53 -7 54 1 49 5 -15 11 -21 2 -38 0 -38 -4z"/>
<path d="M260 708 c0 -3 27 -8 60 -10 32 -1 56 0 52 4 -9 8 -112 15 -112 6z"/>
<path d="M250 673 c0 -5 22 -6 49 -5 27 2 60 -1 72 -8 23 -11 23 -10 5 4 -20
16 -126 23 -126 9z"/>
<path d="M424 651 c0 -11 4 -17 8 -15 4 3 8 12 8 20 0 8 -4 14 -8 14 -4 0 -8
-9 -8 -19z"/>
<path d="M300 641 c30 -3 62 -10 70 -14 8 -5 6 -1 -4 7 -13 11 -37 15 -70 15
l-51 -2 55 -6z"/>
<path d="M240 619 c0 -4 24 -9 53 -11 28 -2 61 -8 72 -12 l20 -8 -20 13 c-22
15 -125 29 -125 18z"/>
<path d="M415 600 c3 -5 8 -10 11 -10 2 0 4 5 4 10 0 6 -5 10 -11 10 -5 0 -7
-4 -4 -10z"/>
<path d="M230 577 c0 -4 11 -18 24 -30 13 -13 26 -36 28 -52 2 -19 10 -31 21
-33 14 -3 17 4 17 32 0 20 5 36 11 36 7 0 9 -10 5 -26 l-7 -25 23 20 c12 12
27 21 34 21 28 0 23 20 -8 37 -34 19 -148 34 -148 20z"/>
<path d="M406 565 c4 -8 8 -15 10 -15 2 0 4 7 4 15 0 8 -4 15 -10 15 -5 0 -7
-7 -4 -15z"/>
<path d="M290 400 c0 -38 4 -50 15 -50 11 0 15 12 15 50 0 38 -4 50 -15 50
-11 0 -15 -12 -15 -50z"/>
<path d="M333 400 c0 -30 2 -43 4 -27 2 15 2 39 0 55 -2 15 -4 2 -4 -28z"/>
<path d="M990 633 c0 -97 11 -203 21 -203 10 0 12 176 3 233 -10 60 -24 43
-24 -30z"/>
<path d="M1086 640 c7 -6 40 -14 74 -17 l61 -6 -45 -46 c-28 -29 -42 -51 -38
-58 6 -9 26 6 67 47 45 46 56 63 47 72 -16 16 -181 25 -166 8z"/>
<path d="M847 522 c-31 -31 -57 -62 -57 -68 0 -12 67 -24 131 -24 22 0 39 5
39 10 0 6 -15 10 -32 10 -18 0 -50 3 -71 7 l-38 6 46 47 c26 27 46 53 44 59
-2 6 -30 -15 -62 -47z"/>
<path d="M3309 1490 c-105 -18 -169 -82 -169 -170 0 -86 58 -132 213 -171 48
-12 99 -30 112 -41 47 -36 23 -108 -40 -124 -52 -13 -159 1 -212 27 l-51 25
-16 -34 c-21 -43 -13 -54 62 -83 83 -32 219 -32 284 0 64 31 91 70 96 141 4
50 1 60 -23 88 -36 43 -62 55 -180 87 -114 30 -148 53 -143 99 2 21 13 37 37
53 52 35 143 31 242 -11 12 -5 20 3 31 33 l16 40 -51 19 c-64 24 -147 33 -208
22z"/>
<path d="M1802 1479 c6 -4 16 -5 20 -3 4 3 8 0 8 -6 0 -6 -6 -10 -13 -8 -7 2
-12 -1 -12 -7 0 -5 6 -9 12 -9 7 1 11 -2 8 -6 -3 -5 0 -10 7 -13 7 -2 5 -3 -5
-1 -13 2 -15 -1 -8 -10 14 -17 -6 -37 -28 -29 -14 6 -14 4 2 -14 9 -11 14 -23
10 -28 -5 -4 -3 -5 4 -1 7 4 10 13 6 21 -3 8 0 15 7 15 8 0 10 -8 7 -22 -4
-12 -2 -27 4 -34 7 -8 7 -14 -1 -19 -5 -3 -13 1 -16 9 -11 29 -23 16 -21 -23
1 -22 4 -39 7 -38 6 2 10 -8 10 -24 0 -6 -7 -8 -16 -5 -8 3 -12 2 -9 -3 3 -6
14 -9 25 -8 10 1 16 5 14 9 -3 4 0 8 6 8 6 0 8 5 4 12 -4 7 -3 8 4 4 8 -5 8
-13 0 -31 -6 -13 -15 -22 -19 -19 -5 3 -9 0 -9 -6 0 -6 -5 -8 -12 -4 -8 5 -9
2 -5 -10 4 -10 7 -23 7 -29 1 -7 7 -1 14 12 13 24 14 24 12 -11 -1 -27 -5 -34
-18 -30 -18 4 -19 -11 -1 -43 9 -16 8 -24 -3 -37 -12 -12 -12 -18 -3 -24 8 -5
10 -3 4 6 -5 9 -4 11 4 6 15 -10 3 -29 -15 -22 -8 3 -14 0 -14 -5 0 -7 11 -9
24 -7 15 3 27 0 30 -8 3 -8 0 -14 -5 -14 -7 0 -9 -11 -7 -25 3 -13 2 -22 -2
-20 -5 3 -10 -2 -13 -10 -5 -12 17 -14 151 -11 191 3 233 15 309 91 112 113
112 287 0 400 -69 68 -119 85 -272 92 l-120 6 25 -29 25 -29 -30 27 c-23 21
-40 27 -68 26 -22 -1 -33 -4 -25 -9z m190 -79 c103 0 153 -15 199 -61 95 -95
64 -277 -55 -329 -29 -13 -73 -19 -151 -22 l-110 -3 3 203 c2 142 6 208 15
217 7 7 14 9 15 4 2 -5 40 -9 84 -9z m-141 -203 c-10 -9 -11 -8 -5 6 3 10 9
15 12 12 3 -3 0 -11 -7 -18z m-21 -107 c0 -5 -4 -10 -9 -10 -6 0 -13 5 -16 10
-3 6 1 10 9 10 9 0 16 -4 16 -10z"/>
<path d="M2480 1195 l0 -297 173 4 c160 3 176 5 227 29 64 30 112 74 143 133
18 33 22 57 22 131 0 107 -18 150 -90 213 -72 63 -115 74 -307 80 l-168 4 0
-297z m378 172 c127 -84 114 -296 -22 -358 -32 -14 -65 -19 -148 -19 l-108 0
0 206 0 206 118 -3 c109 -4 122 -6 160 -32z"/>
<path d="M3710 1195 l0 -295 50 0 50 0 0 124 c0 69 3 126 8 128 4 2 76 2 160
0 l152 -4 0 -124 0 -124 50 0 50 0 0 295 0 295 -50 0 -49 0 -3 -122 -3 -123
-157 -3 -158 -3 0 126 0 125 -50 0 -50 0 0 -295z"/>
<path d="M1800 960 c0 -11 -4 -20 -10 -20 -5 0 -10 -4 -10 -10 0 -5 6 -7 14
-4 15 6 28 54 15 54 -5 0 -9 -9 -9 -20z"/>
</g>
</svg>
