<?xml version="1.0" standalone="no"?>
<!DOCTYPE svg PUBLIC "-//W3C//DTD SVG 20010904//EN"
 "http://www.w3.org/TR/2001/REC-SVG-20010904/DTD/svg10.dtd">
<svg version="1.0" xmlns="http://www.w3.org/2000/svg"
 width="512.000000pt" height="520.000000pt" viewBox="0 0 512.000000 520.000000"
 preserveAspectRatio="xMidYMid meet">

<g transform="translate(0.000000,520.000000) scale(0.100000,-0.100000)"
fill="#000000" stroke="none">
<path d="M2562 5065 c3 -100 6 -116 23 -130 11 -9 13 -13 5 -9 -8 4 0 -9 18
-29 32 -38 41 -53 22 -42 -15 9 -12 -11 3 -24 8 -6 26 -43 42 -82 15 -39 45
-101 67 -138 40 -68 43 -104 14 -141 -7 -8 -18 -28 -26 -45 -8 -16 -25 -44
-38 -62 l-24 -32 38 -63 c20 -35 39 -65 40 -67 2 -2 54 9 116 24 111 28 113
28 178 12 54 -14 140 -15 140 -1 0 2 -47 74 -103 161 -239 364 -464 710 -486
746 -12 20 -25 37 -28 37 -2 0 -3 -52 -1 -115z"/>
<path d="M2473 4289 c-70 -111 -81 -133 -69 -144 8 -8 44 -62 81 -120 37 -58
71 -102 75 -98 4 4 38 53 75 108 38 55 75 105 82 112 12 10 1 33 -68 142 -46
72 -86 131 -89 131 -3 0 -42 -59 -87 -131z m47 -89 c-34 -51 -45 -60 -70 -60
-17 0 -30 5 -30 11 0 6 30 59 68 117 l67 105 3 -56 c3 -52 0 -61 -38 -117z"/>
<path d="M2654 4000 c-49 -77 -91 -140 -94 -140 -3 0 -25 30 -50 66 -24 36
-52 70 -61 75 -9 4 -31 31 -49 59 -19 30 -39 50 -50 50 -39 0 -169 -32 -285
-71 -237 -79 -447 -212 -646 -409 -124 -123 -231 -265 -295 -391 l-25 -50 42
-49 c23 -28 45 -50 49 -50 3 0 22 33 41 72 130 276 382 528 664 668 174 87
276 117 526 155 22 3 31 -6 78 -81 29 -46 57 -84 61 -84 4 0 32 37 62 83 l56
84 73 -9 c293 -35 594 -176 815 -382 135 -125 269 -305 331 -442 15 -35 31
-64 34 -64 3 0 27 25 53 56 33 37 46 61 43 74 -10 38 -131 230 -197 312 -189
235 -471 432 -745 522 -92 30 -247 65 -287 66 -16 0 -28 5 -28 10 0 35 -39 -8
-116 -130z"/>
<path d="M3859 4098 c-1 -7 -1 -16 0 -20 0 -5 -3 -8 -9 -8 -5 0 -10 -5 -10
-11 0 -17 -126 -201 -168 -245 l-40 -42 178 -106 c206 -123 216 -127 207 -100
-21 73 -137 511 -137 521 0 17 -20 27 -21 11z"/>
<path d="M1175 3828 c-10 -40 -31 -118 -47 -173 -15 -55 -28 -103 -28 -107 0
-3 39 17 88 46 48 28 158 94 245 146 87 51 154 97 150 101 -4 4 -55 10 -113
13 -142 9 -165 12 -176 19 -6 3 -22 8 -37 11 -15 3 -36 7 -46 11 -16 5 -21 -4
-36 -67z"/>
<path d="M5085 3325 c-5 -2 -118 -38 -249 -81 -182 -59 -254 -87 -302 -118
-35 -23 -63 -48 -64 -56 0 -12 -2 -13 -9 -1 -7 11 -14 10 -37 -5 l-29 -19 29
39 c28 38 28 38 5 30 -34 -11 -42 -10 -210 36 -84 22 -155 37 -159 33 -4 -4
-42 -53 -85 -108 -43 -55 -85 -109 -94 -119 -9 -11 -11 -16 -4 -12 7 4 72 -9
146 -29 73 -19 138 -35 143 -35 6 0 44 41 85 92 41 50 79 97 84 104 6 6 21 15
34 19 18 6 -1 -24 -79 -119 -57 -70 -106 -129 -110 -131 -4 -2 -81 15 -171 39
-98 26 -171 41 -182 37 -14 -5 6 -14 69 -30 49 -13 93 -28 99 -33 5 -5 14 -25
20 -46 l10 -36 55 2 c78 3 80 4 80 19 0 7 9 13 20 13 11 0 23 7 26 15 4 8 10
15 14 15 5 0 34 -41 66 -92 51 -81 58 -99 62 -152 3 -59 28 -146 41 -146 3 0
26 29 51 63 25 34 61 80 81 102 27 29 450 549 572 703 10 12 9 13 -8 7z m-981
-218 c15 -37 15 -37 -12 -55 -15 -9 -36 -28 -46 -41 -34 -41 -125 -69 -112
-34 12 29 140 183 147 175 4 -4 14 -24 23 -45z"/>
<path d="M1022 3183 c-7 -3 -77 -22 -156 -42 -96 -26 -150 -35 -164 -30 -12 5
-22 6 -22 3 0 -5 196 -248 231 -287 12 -13 24 -17 38 -12 17 5 21 2 21 -15 0
-17 4 -19 26 -14 17 4 25 3 21 -3 -8 -13 46 -11 55 2 5 6 8 4 8 -5 1 -25 30
20 30 46 0 31 14 38 114 65 63 16 83 25 69 30 -11 4 -84 -11 -182 -37 -90 -24
-167 -41 -172 -39 -4 3 -53 62 -110 131 -76 94 -96 124 -78 119 13 -4 28 -14
34 -21 85 -107 161 -194 169 -194 7 0 67 16 136 36 68 19 132 33 142 31 13 -4
6 10 -23 46 -23 29 -67 85 -97 125 -55 70 -63 76 -90 65z m12 -50 c-4 -16 -12
-33 -18 -40 -18 -19 -125 -43 -149 -33 -20 8 -18 9 9 9 25 1 34 7 44 30 9 23
23 32 63 44 29 9 53 16 55 16 1 1 -1 -11 -4 -26z"/>
<path d="M471 2768 c66 -82 129 -159 140 -171 11 -12 41 -50 67 -84 25 -35 49
-63 53 -63 13 0 37 87 42 152 3 47 11 76 27 98 24 34 24 38 -6 43 -10 1 -23 5
-29 8 -5 4 -23 9 -40 13 -17 4 -57 33 -90 66 -63 61 -86 69 -202 72 -18 1 -33
4 -33 7 0 3 -11 7 -24 7 -21 2 -8 -19 95 -148z"/>
<path d="M4533 2560 c3 -19 14 -66 25 -103 37 -121 17 -266 -49 -358 -19 -27
-72 -169 -66 -175 2 -2 30 9 63 25 145 69 205 218 159 395 -17 66 -72 175
-111 221 l-26 30 5 -35z"/>
<path d="M4110 1984 c0 -8 5 -12 10 -9 17 11 11 -5 -17 -42 -24 -31 -29 -49
-34 -122 -8 -104 -32 -186 -79 -266 l-35 -60 -3 43 c-3 46 -27 59 -37 20 -12
-45 -37 -204 -42 -260 -4 -53 -3 -58 15 -58 21 0 32 25 32 77 0 29 4 33 41 44
57 17 123 80 156 147 15 31 46 82 69 112 91 120 193 308 172 314 -7 3 -63 21
-123 40 -126 41 -125 41 -125 20z"/>
<path d="M828 1943 l-78 -24 31 -61 c40 -79 131 -224 164 -263 l26 -30 -7 40
c-5 22 -8 94 -9 160 0 109 -3 124 -25 161 l-25 40 -77 -23z"/>
<path d="M591 1868 l-95 -30 55 -34 c30 -18 77 -41 104 -50 28 -9 65 -25 83
-35 17 -10 32 -17 32 -15 0 2 -15 36 -33 77 -19 41 -38 84 -43 95 l-9 21 -94
-29z"/>
<path d="M4423 1883 c-3 -10 -23 -55 -44 -100 -21 -46 -36 -83 -33 -83 3 0 26
11 52 24 26 13 63 28 83 35 44 14 143 77 132 84 -4 3 -39 14 -78 26 -38 12
-78 24 -88 27 -11 3 -19 -1 -24 -13z"/>
<path d="M4730 1701 c-90 -88 -185 -152 -301 -202 -96 -42 -153 -56 -163 -41
-4 7 -44 -2 -108 -24 -111 -37 -129 -47 -111 -65 9 -9 32 -4 91 20 l79 31 49
-27 c43 -25 59 -28 139 -28 73 0 98 4 131 22 58 31 146 114 189 178 37 56 88
179 83 199 -2 6 -37 -22 -78 -63z"/>
<path d="M4654 1655 c-10 -8 -14 -15 -8 -15 6 0 17 7 24 15 16 19 9 19 -16 0z"/>
<path d="M3628 1495 c-28 -35 -38 -58 -38 -84 0 -74 -49 -195 -104 -258 -29
-34 -39 -28 -31 17 5 31 4 40 -8 40 -13 0 -40 -78 -62 -174 -6 -27 -8 -28 -22
-13 -15 14 -21 13 -76 -14 -73 -37 -264 -102 -372 -125 -56 -13 -121 -18 -217
-17 l-138 0 0 -54 c0 -47 -2 -54 -17 -49 -10 2 -47 8 -83 11 -54 6 -68 4 -79
-9 -11 -13 -38 -16 -161 -16 -135 0 -156 3 -250 31 -66 19 -106 27 -113 20 -6
-6 -1 -13 12 -21 12 -6 19 -15 16 -20 -3 -5 5 -12 17 -15 13 -4 31 -14 40 -22
9 -8 21 -12 27 -9 5 4 47 -1 93 -10 l83 -16 208 -174 209 -173 194 162 c107
89 204 168 214 176 22 15 159 43 177 36 15 -5 96 39 87 48 -3 3 4 11 16 17 18
10 24 9 31 -1 5 -8 8 -19 6 -25 -1 -7 -166 -147 -366 -313 -319 -264 -366
-299 -380 -288 -9 8 -175 146 -368 306 -318 264 -352 295 -342 313 10 19 10
19 -18 1 -15 -9 -30 -20 -33 -24 -15 -19 -113 -69 -162 -84 -54 -15 -62 -15
-115 0 -62 18 -133 54 -133 67 0 11 97 82 152 111 26 14 70 31 97 38 l51 13
-111 58 c-124 65 -149 68 -216 22 -71 -48 -141 -67 -243 -67 -67 0 -107 5
-134 16 -69 30 -49 11 25 -23 137 -63 262 -48 366 44 27 24 55 40 65 38 17 -3
17 -5 0 -30 -28 -44 -240 -341 -341 -476 -51 -70 -91 -129 -89 -131 2 -3 190
67 418 155 228 88 420 160 428 160 7 0 93 -65 190 -146 97 -80 233 -191 301
-247 69 -56 147 -121 174 -145 27 -24 55 -41 62 -38 8 3 169 133 359 290 190
157 351 286 358 286 7 0 200 -72 428 -160 228 -87 416 -158 418 -156 2 2 -57
86 -131 187 -194 267 -327 457 -327 469 0 21 23 8 73 -43 71 -73 143 -101 245
-94 62 3 88 11 167 51 92 45 202 132 227 179 9 17 8 19 -8 12 -147 -62 -310
-115 -351 -115 -32 0 -43 3 -34 9 26 17 -20 28 -139 35 -63 4 -143 13 -177 20
-49 10 -65 11 -73 1 -13 -16 7 -35 37 -35 48 0 28 -15 -139 -103 l-47 -25 37
-7 c75 -14 280 -140 261 -160 -4 -3 -47 -9 -95 -12 -82 -5 -96 -3 -176 25
-102 36 -137 53 -196 95 -32 23 -45 28 -54 19 -8 -8 -8 -15 1 -26 15 -18 12
-19 -74 -44 -183 -54 -386 -87 -370 -62 3 6 3 10 -2 10 -4 0 -21 11 -37 25
-33 28 -37 26 84 50 110 22 342 89 422 122 109 44 116 45 120 15 2 -14 9 -27
15 -30 13 -4 17 3 27 48 4 20 15 28 50 38 28 7 65 30 103 63 32 28 68 55 80
60 27 10 50 44 56 84 3 17 8 39 12 50 7 16 6 18 -6 8 -7 -7 -20 -13 -28 -13
-14 0 -16 14 -13 92 2 51 2 117 0 147 l-3 54 -37 -48z m-1068 -931 c0 -107 -1
-116 -17 -109 -10 4 -26 8 -37 11 -32 6 -144 62 -183 91 -21 15 -55 46 -75 68
l-37 40 162 5 c89 3 168 7 175 8 9 1 12 -27 12 -114z"/>
<path d="M515 1441 c30 -35 112 -72 170 -78 60 -6 138 10 179 37 29 18 29 18
-91 15 -117 -4 -164 3 -258 41 l-20 7 20 -22z"/>
<path d="M1240 1310 c0 -28 35 -59 175 -152 66 -45 137 -95 157 -113 36 -30
114 -62 125 -51 11 11 -17 33 -59 47 -68 21 -115 59 -143 113 -14 28 -25 58
-25 68 0 10 -7 21 -15 24 -8 4 -13 10 -10 14 3 5 0 12 -6 16 -8 4 -9 3 -5 -4
10 -16 9 -16 -93 23 -49 19 -93 35 -96 35 -3 0 -5 -9 -5 -20z"/>
<path d="M1784 1053 c3 -8 2 -12 -3 -9 -15 9 -43 -42 -33 -60 10 -17 120 -59
292 -111 l115 -34 120 12 c92 10 113 15 90 20 -16 5 -78 19 -137 33 -139 32
-264 75 -367 124 -49 23 -80 33 -77 25z"/>
</g>
</svg>
