<?xml version="1.0" standalone="no"?>
<!DOCTYPE svg PUBLIC "-//W3C//DTD SVG 20010904//EN"
 "http://www.w3.org/TR/2001/REC-SVG-20010904/DTD/svg10.dtd">
<svg version="1.0" xmlns="http://www.w3.org/2000/svg"
 width="512.000000pt" height="512.000000pt" viewBox="0 0 512.000000 512.000000"
 preserveAspectRatio="xMidYMid meet">

<g transform="translate(0.000000,512.000000) scale(0.100000,-0.100000)"
fill="#000000" stroke="none">
<path d="M1700 5108 c-24 -10 -23 -11 20 -20 53 -11 137 -4 200 16 44 14 44
14 -75 14 -66 1 -131 -4 -145 -10z"/>
<path d="M2328 5108 c-16 -5 -28 -13 -28 -18 0 -4 -8 -10 -17 -13 -10 -2 -26
-8 -35 -12 -12 -5 -18 -3 -18 7 0 7 -9 19 -20 26 -24 15 -24 12 -6 -33 8 -19
22 -35 31 -35 13 0 172 74 184 86 8 8 -64 2 -91 -8z"/>
<path d="M2495 5091 c-8 -16 -19 -31 -24 -33 -5 -1 -35 -26 -68 -55 -32 -28
-71 -62 -88 -76 -24 -21 -27 -27 -17 -40 7 -8 27 -17 45 -20 18 -3 42 -7 54
-10 16 -4 28 1 43 20 19 24 19 28 5 49 -20 31 -19 38 9 54 14 7 26 22 28 34 2
13 12 22 26 24 16 2 27 14 34 33 13 37 22 37 38 -1 7 -18 20 -30 31 -30 10 0
20 -9 24 -20 3 -11 17 -28 31 -39 28 -22 30 -34 10 -51 -17 -13 -11 -36 17
-67 17 -19 21 -20 34 -7 8 7 27 14 42 14 15 0 36 7 47 15 19 15 18 15 -6 35
-62 50 -115 97 -135 118 -12 12 -27 22 -32 22 -6 0 -16 14 -23 30 -11 28 -16
30 -61 30 -43 0 -50 -3 -64 -29z"/>
<path d="M2727 5106 c40 -30 153 -78 168 -72 13 5 49 75 42 82 -1 1 -17 -4
-35 -13 -24 -12 -35 -13 -46 -4 -7 6 -45 14 -82 17 -66 6 -68 5 -47 -10z"/>
<path d="M3000 5109 c0 -5 5 -7 10 -4 6 3 10 8 10 11 0 2 -4 4 -10 4 -5 0 -10
-5 -10 -11z"/>
<path d="M3131 5109 c-28 -11 -23 -33 10 -38 13 -1 26 -7 29 -12 3 -4 22 -10
41 -12 40 -4 59 -13 59 -28 0 -15 -70 -11 -76 5 -3 8 -29 16 -67 20 -38 4 -73
14 -89 26 -15 11 -30 20 -33 20 -10 0 -5 -109 5 -115 6 -4 23 -8 38 -11 56
-10 157 -46 258 -94 57 -28 109 -50 115 -50 23 0 0 26 -39 44 -23 11 -42 23
-42 28 0 14 49 20 81 9 44 -15 59 -14 59 5 0 10 4 12 13 7 19 -12 51 -14 67
-3 18 11 4 23 -78 67 -49 26 -54 27 -63 11 -8 -14 -14 -15 -34 -6 -17 8 -24
17 -20 28 7 22 -6 32 -80 62 -33 14 -69 29 -80 33 -29 12 -48 13 -74 4z"/>
<path d="M3220 5113 c14 -3 31 -10 38 -15 20 -17 198 -20 211 -4 16 19 -29 26
-163 25 -61 -1 -100 -4 -86 -6z"/>
<path d="M1945 5098 c-39 -13 -130 -54 -180 -80 -22 -12 -50 -26 -63 -32 -12
-6 -20 -17 -17 -23 4 -12 -6 -17 -32 -14 -15 2 -83 -38 -83 -49 0 -12 19 -17
51 -12 16 2 26 8 23 13 -3 5 26 9 65 9 38 0 73 -4 76 -10 3 -5 -15 -20 -41
-32 -45 -22 -69 -48 -44 -48 6 0 55 21 108 47 l97 48 -40 6 c-22 4 -57 6 -77
4 -21 -2 -38 -2 -38 0 0 9 56 55 66 55 6 0 17 7 24 15 19 23 94 55 129 55 16
0 33 5 36 10 3 6 16 10 29 10 29 0 39 10 25 27 -13 15 -71 16 -114 1z"/>
<path d="M2060 4974 c-14 -8 -19 -14 -10 -14 26 0 60 12 60 21 0 12 -20 10
-50 -7z"/>
<path d="M1977 4954 c3 -8 12 -13 20 -10 8 3 17 6 19 6 3 0 2 5 -1 10 -11 17
-45 12 -38 -6z"/>
<path d="M657 4945 c-8 -30 -17 -156 -19 -292 -1 -67 -6 -119 -10 -117 -5 3
-8 20 -9 37 0 25 -2 28 -8 13 -4 -11 -4 -44 1 -73 8 -51 -3 -130 -21 -143 -8
-7 -51 -86 -51 -95 0 -12 33 28 65 79 36 57 50 59 41 6 -5 -31 -3 -40 8 -40
15 0 26 21 26 51 0 10 11 26 25 35 40 26 101 124 100 160 -1 18 -19 72 -40
120 -21 49 -53 132 -70 184 -22 66 -34 89 -38 75z"/>
<path d="M1920 4929 c0 -5 5 -7 10 -4 6 3 10 8 10 11 0 2 -4 4 -10 4 -5 0 -10
-5 -10 -11z"/>
<path d="M4431 4866 c-11 -37 -21 -93 -21 -123 0 -31 -4 -52 -9 -48 -12 7 -57
-37 -66 -65 -3 -11 -10 -20 -14 -20 -5 0 -7 -17 -6 -38 2 -38 60 -144 92 -169
9 -7 19 -29 23 -50 4 -23 11 -37 19 -35 7 1 27 -7 46 -18 18 -11 35 -20 37
-20 3 0 -1 28 -8 63 -7 34 -13 71 -14 82 0 19 1 19 13 -1 63 -109 80 -134 84
-131 6 6 -17 55 -54 114 -19 29 -36 66 -39 83 -4 16 -10 28 -14 25 -11 -7 -19
74 -25 237 -3 76 -9 148 -14 160 -7 20 -11 13 -30 -46z m60 -389 c-10 -9 -11
-8 -5 6 3 10 9 15 12 12 3 -3 0 -11 -7 -18z"/>
<path d="M3617 4875 c-56 -68 -79 -107 -68 -118 8 -8 11 -8 11 0 0 7 8 14 18
17 22 7 86 116 75 127 -4 4 -21 -7 -36 -26z"/>
<path d="M1467 4893 c-6 -11 64 -124 85 -137 32 -19 40 6 13 38 -14 16 -25 32
-25 35 0 8 -56 71 -63 71 -3 0 -8 -3 -10 -7z"/>
<path d="M4289 4877 c-21 -8 -29 -20 -35 -51 -12 -64 -3 -107 16 -76 6 8 10
30 10 48 0 22 6 35 18 39 9 3 25 13 35 21 13 12 15 17 5 24 -15 9 -15 9 -49
-5z"/>
<path d="M1015 4786 c-41 -41 -75 -80 -75 -88 1 -8 8 -4 19 10 11 12 22 22 27
22 4 0 13 8 20 18 12 15 12 15 7 -5 -4 -18 -1 -23 14 -23 23 0 43 18 43 41 0
19 26 44 33 32 3 -4 8 -35 11 -68 7 -60 7 -60 -23 -73 -17 -8 -31 -21 -31 -29
0 -9 -6 -13 -15 -9 -12 4 -14 0 -9 -22 4 -15 7 -29 8 -32 1 -6 -6 -16 -60 -78
-28 -32 -40 -40 -50 -32 -19 16 -88 -10 -128 -48 -21 -19 -38 -48 -45 -76 -6
-25 -16 -48 -23 -52 -7 -4 -8 -3 -4 4 4 7 1 12 -8 12 -17 0 -76 -71 -94 -114
-13 -29 -7 -96 9 -96 5 0 9 -10 9 -23 0 -12 7 -33 16 -46 14 -20 22 -22 68
-17 152 15 186 18 186 12 0 -3 -5 -15 -12 -25 -9 -15 -8 -24 5 -45 23 -34 21
-39 -8 -32 -19 5 -23 3 -19 -9 4 -8 9 -15 13 -15 3 0 21 -9 40 -21 l34 -20
-25 -27 c-36 -38 -101 -169 -94 -187 11 -30 18 -22 128 142 26 39 52 74 58 78
5 3 10 13 10 21 0 13 -53 90 -95 137 -9 10 -22 31 -28 45 -14 32 -87 131 -110
151 -10 7 -17 19 -17 26 0 8 24 5 87 -11 94 -25 106 -23 118 23 13 51 107 238
113 223 2 -8 14 -27 24 -42 l19 -28 -25 0 c-42 0 -34 -42 19 -99 25 -26 45
-53 45 -59 0 -23 -21 -22 -53 2 -45 34 -59 33 -91 -9 l-26 -34 22 -15 c32 -19
133 -47 150 -40 7 3 44 51 81 107 38 56 82 120 97 142 16 22 32 57 35 78 4 20
11 38 16 39 5 0 14 1 21 2 14 1 40 -119 32 -151 -4 -13 -3 -53 1 -88 5 -54 10
-65 25 -65 10 0 21 4 24 8 3 5 31 14 63 21 32 8 75 22 95 32 21 11 48 19 62
19 15 0 30 8 36 19 8 17 5 23 -23 42 -44 31 -56 49 -57 81 0 24 2 26 28 19 15
-5 55 -4 89 2 51 8 61 13 60 28 -1 11 -4 19 -8 19 -8 0 -25 42 -33 83 -7 31
-24 36 -33 10 -3 -10 -15 -28 -27 -41 -12 -13 -21 -26 -21 -29 0 -4 -26 -5
-57 -4 -31 1 -66 -2 -77 -8 -27 -15 -31 -5 -19 59 12 59 13 110 3 147 -7 29
-41 31 -50 3 -7 -21 -7 -21 -41 1 -19 12 -38 19 -41 15 -12 -12 29 -117 53
-133 13 -8 24 -24 24 -35 0 -10 7 -32 15 -49 14 -26 14 -30 0 -35 -20 -8 -42
12 -96 87 -24 32 -48 59 -54 59 -15 0 -65 -53 -65 -68 0 -7 9 -12 20 -12 11 0
20 -7 20 -15 0 -8 -4 -15 -9 -15 -5 0 -13 -9 -16 -20 -3 -11 -12 -20 -20 -20
-7 0 -15 -5 -17 -11 -4 -13 -42 4 -104 46 -45 31 -61 31 -85 3 -18 -22 -18
-23 -19 -2 0 11 15 46 34 77 37 61 33 82 -9 43 -14 -13 -34 -26 -45 -29 -20
-5 -20 -5 1 24 11 16 26 29 33 29 7 0 21 6 31 14 18 13 17 15 -14 65 -20 31
-31 58 -27 67 7 18 -18 64 -34 64 -6 0 -44 -33 -85 -74z"/>
<path d="M2490 4850 c0 -5 5 -10 10 -10 6 0 10 5 10 10 0 6 -4 10 -10 10 -5 0
-10 -4 -10 -10z"/>
<path d="M2610 4850 c0 -6 7 -10 15 -10 8 0 15 2 15 4 0 2 -7 6 -15 10 -8 3
-15 1 -15 -4z"/>
<path d="M2000 4783 c0 -72 -5 -86 -32 -96 -10 -3 -18 -16 -18 -27 0 -20 1
-21 25 -3 13 10 25 26 25 36 0 9 5 17 10 17 6 0 10 28 10 64 0 36 -4 68 -10
71 -6 4 -10 -19 -10 -62z"/>
<path d="M2813 4843 c-29 -11 -1 -62 35 -63 17 0 15 39 -3 46 -8 4 -12 10 -9
15 6 10 -3 11 -23 2z"/>
<path d="M3980 4820 c-21 -29 -16 -42 8 -18 9 9 12 8 12 -4 0 -9 -4 -19 -9
-22 -5 -3 -19 -25 -31 -47 -22 -43 -21 -69 2 -69 16 0 52 114 45 141 -3 10 -1
22 4 25 5 3 9 9 9 15 0 18 -19 8 -40 -21z"/>
<path d="M4082 4803 c13 -49 36 -93 48 -93 5 0 13 8 19 17 9 17 11 16 35 -6
44 -41 46 -18 3 30 -38 41 -97 89 -110 89 -3 0 -1 -17 5 -37z"/>
<path d="M2278 4819 c-26 -15 -23 -41 5 -37 14 2 23 11 25 26 4 24 -4 27 -30
11z"/>
<path d="M1150 4788 c0 -3 9 -15 20 -28 11 -13 20 -19 20 -13 0 5 -9 18 -20
28 -11 10 -20 16 -20 13z"/>
<path d="M2067 4774 c-3 -3 2 -21 10 -40 15 -31 21 -34 60 -34 47 0 51 5 25
36 -28 35 -78 55 -95 38z"/>
<path d="M2967 4744 c-37 -35 -37 -37 12 -48 29 -6 84 44 75 68 -10 26 -47 18
-87 -20z"/>
<path d="M3101 4754 c0 -11 3 -14 6 -6 3 7 2 16 -1 19 -3 4 -6 -2 -5 -13z"/>
<path d="M1654 4725 c-6 -33 1 -73 11 -63 3 3 7 26 11 51 6 55 -12 65 -22 12z"/>
<path d="M3433 4705 c4 -38 1 -64 -8 -82 -15 -29 -5 -46 20 -36 18 6 29 126
15 152 -21 40 -33 24 -27 -34z"/>
<path d="M3595 4720 c-17 -18 -20 -19 -41 -5 -35 22 -40 19 -54 -30 -11 -39
-10 -56 2 -108 8 -34 14 -65 12 -68 -2 -3 -38 -4 -80 -3 -71 2 -78 4 -99 31
-13 15 -21 31 -19 34 2 4 -3 13 -12 20 -13 10 -17 10 -25 -2 -5 -8 -9 -24 -9
-36 0 -12 -10 -38 -21 -58 -12 -20 -20 -37 -18 -38 14 -10 129 -25 152 -20 42
9 36 -31 -13 -78 -22 -21 -40 -44 -40 -52 0 -20 21 -37 48 -37 13 0 36 -6 50
-14 15 -8 52 -19 82 -25 31 -6 77 -23 104 -36 74 -37 79 -35 71 30 -7 54 -7
55 19 55 14 0 26 -4 26 -9 0 -14 108 -81 123 -75 23 9 136 117 150 144 17 32
11 50 -14 50 -23 0 -24 9 -3 38 14 20 14 25 -7 62 -22 39 -47 58 -58 42 -3 -4
-22 -19 -41 -32 -19 -13 -37 -27 -40 -30 -6 -7 -79 -40 -87 -40 -4 0 8 14 27
30 l35 31 -50 -26 c-59 -30 -70 -31 -60 -7 5 9 9 28 10 42 1 17 8 26 22 28 35
5 34 29 -3 61 -19 17 -39 31 -43 31 -5 0 -35 -34 -66 -75 -76 -102 -103 -100
-71 5 7 25 20 46 27 48 8 1 25 22 38 46 35 67 18 122 -24 76z"/>
<path d="M1855 4703 c-38 -25 -38 -27 -17 -36 16 -7 32 -5 62 8 33 15 38 20
29 36 -13 25 -27 24 -74 -8z"/>
<path d="M3200 4716 c0 -15 70 -47 84 -38 13 8 -41 52 -65 52 -10 0 -19 -6
-19 -14z"/>
<path d="M4151 4694 c0 -11 3 -14 6 -6 3 7 2 16 -1 19 -3 4 -6 -2 -5 -13z"/>
<path d="M1010 4679 c0 -11 4 -18 10 -14 5 3 7 12 3 20 -7 21 -13 19 -13 -6z"/>
<path d="M1779 4630 c-7 -19 -18 -30 -29 -30 -14 0 -18 -6 -16 -27 2 -16 9
-28 16 -28 16 0 45 49 52 88 7 36 -10 35 -23 -3z"/>
<path d="M2490 4652 c0 -5 -16 -29 -35 -53 -24 -32 -33 -51 -28 -67 6 -26 11
-27 42 -6 17 12 26 13 34 5 14 -14 92 -14 118 0 15 7 24 7 35 -1 16 -14 44 -6
44 12 0 7 -16 33 -36 58 -30 38 -35 41 -29 18 6 -24 4 -28 -32 -37 -27 -7 -50
-7 -77 0 -37 10 -38 12 -32 45 4 19 4 34 1 34 -3 0 -5 -4 -5 -8z"/>
<path d="M3324 4608 c5 -30 48 -78 69 -78 17 0 20 33 3 45 -13 10 -14 14 -4
19 7 3 3 3 -9 0 -18 -4 -25 0 -33 20 -14 38 -34 33 -26 -6z"/>
<path d="M3933 4614 c2 -14 8 -29 14 -32 5 -4 33 -54 62 -111 28 -58 57 -111
63 -118 15 -19 268 -19 268 0 0 20 -71 99 -84 94 -7 -3 -23 1 -36 8 -21 11
-26 11 -36 -3 -10 -14 -15 -12 -38 14 -14 16 -28 37 -31 47 -4 9 -10 17 -15
17 -14 0 -92 55 -119 84 -32 34 -53 34 -48 0z"/>
<path d="M4070 4628 c0 -7 4 -19 9 -27 11 -17 25 3 17 24 -7 18 -26 20 -26 3z"/>
<path d="M1943 4588 c-28 -14 -37 -37 -17 -45 15 -6 54 27 54 47 0 12 -8 12
-37 -2z"/>
<path d="M3140 4590 c0 -16 40 -51 50 -45 18 11 10 32 -15 43 -32 15 -35 15
-35 2z"/>
<path d="M2200 4575 c-14 -8 -32 -14 -40 -15 -9 0 -26 -7 -39 -16 l-23 -16 28
-29 c15 -16 48 -36 73 -46 25 -9 53 -22 62 -30 22 -18 98 -17 105 2 4 8 12 15
19 15 12 0 25 21 25 41 0 5 -20 9 -44 9 -36 0 -49 -5 -64 -25 -25 -31 -52 -33
-52 -3 0 12 -3 18 -6 15 -12 -11 -44 13 -44 33 0 12 13 28 30 38 23 14 27 21
18 30 -15 15 -17 15 -48 -3z"/>
<path d="M2866 4572 c-3 -5 8 -16 25 -26 32 -19 40 -62 14 -72 -29 -11 -16
-27 17 -20 41 8 100 53 96 73 -2 9 -27 24 -58 34 -61 20 -86 23 -94 11z"/>
<path d="M3109 4519 c-6 -11 -8 -23 -6 -26 10 -9 47 8 47 22 0 23 -29 26 -41
4z"/>
<path d="M1976 4521 c-7 -10 22 -37 30 -28 9 8 -3 37 -15 37 -5 0 -12 -4 -15
-9z"/>
<path d="M1300 4486 c0 -2 7 -7 16 -10 8 -3 12 -2 9 4 -6 10 -25 14 -25 6z"/>
<path d="M2716 4478 c35 -61 45 -68 94 -68 33 0 50 5 54 15 4 11 -1 15 -19 15
-14 0 -25 7 -28 18 -4 16 -5 16 -6 0 0 -10 -8 -18 -16 -18 -18 0 -20 36 -2 43
6 3 -10 6 -36 6 -36 1 -46 -2 -41 -11z"/>
<path d="M2084 4414 c3 -52 7 -58 63 -79 64 -24 93 -44 93 -64 1 -13 3 -13 15
3 14 19 12 21 -30 41 -25 12 -53 33 -64 46 -10 13 -32 39 -49 58 l-30 35 2
-40z"/>
<path d="M3014 4417 c-33 -38 -38 -49 -23 -58 10 -7 8 -8 -8 -7 -12 2 -21 -1
-20 -7 3 -13 46 -7 62 9 10 9 18 86 10 86 -1 0 -10 -10 -21 -23z"/>
<path d="M2471 4356 c-22 -19 -44 -36 -49 -38 -4 -1 -29 -31 -55 -65 -37 -48
-44 -63 -31 -63 10 0 26 8 36 17 11 10 29 18 41 18 17 0 22 6 21 25 -2 51 55
114 75 81 4 -6 7 5 7 24 0 19 -1 35 -2 35 -1 0 -20 -15 -43 -34z"/>
<path d="M2620 4364 c0 -8 5 -12 10 -9 6 3 10 2 10 -4 0 -5 9 -13 20 -16 11
-3 20 -14 20 -24 0 -9 5 -22 11 -28 8 -8 8 -17 0 -31 -8 -15 -7 -22 2 -29 18
-14 96 -37 103 -30 11 11 -20 53 -87 120 -71 68 -89 79 -89 51z"/>
<path d="M2289 4288 c-27 -53 -40 -98 -29 -98 19 0 40 13 40 25 0 6 11 33 24
58 14 25 22 48 19 51 -16 15 -34 2 -54 -36z"/>
<path d="M2780 4325 c0 -3 5 -13 10 -23 6 -9 19 -38 30 -64 14 -35 25 -48 39
-48 23 0 22 6 -12 80 -11 25 -25 48 -31 52 -13 9 -36 10 -36 3z"/>
<path d="M2904 4315 c-19 -14 -19 -14 2 -15 12 0 27 7 34 15 17 20 -9 21 -36
0z"/>
<path d="M2056 4282 c-10 -17 3 -36 46 -65 29 -20 44 -25 51 -18 6 6 19 11 28
11 19 0 71 39 52 40 -6 0 -15 -4 -18 -10 -16 -25 -85 -4 -97 29 -5 14 -55 24
-62 13z"/>
<path d="M2555 4281 c2 -5 -7 -13 -20 -19 -14 -7 -25 -15 -25 -20 0 -4 -16
-16 -35 -26 -25 -14 -32 -22 -23 -28 14 -8 228 -11 228 -3 0 11 -93 93 -111
98 -10 3 -17 2 -14 -2z"/>
<path d="M2996 4254 c-36 -31 -38 -36 -24 -50 14 -14 19 -13 56 13 46 31 59
52 40 65 -21 13 -31 9 -72 -28z"/>
<path d="M4080 4270 c-8 -5 -29 -10 -45 -10 -42 0 -101 -51 -115 -98 -10 -35
-9 -38 22 -65 18 -15 41 -26 50 -23 14 3 16 -1 12 -23 -5 -23 0 -29 40 -49 27
-12 65 -22 91 -22 l44 0 -6 38 -5 37 44 -49 c39 -44 45 -47 59 -33 14 14 17
13 32 -13 9 -15 14 -30 10 -34 -3 -3 -5 -25 -4 -48 2 -59 -20 -291 -29 -301
-7 -8 10 -57 20 -56 9 1 70 89 70 100 0 26 27 -1 52 -51 17 -36 33 -55 44 -55
25 0 64 61 65 104 2 30 3 32 6 9 2 -16 8 -28 13 -28 12 0 40 77 61 170 23 105
24 138 3 161 -9 10 -16 30 -16 44 0 14 -3 25 -7 25 -4 0 -15 16 -25 35 -11 19
-24 35 -29 35 -14 0 -36 32 -37 53 0 9 -3 17 -7 17 -5 0 -24 14 -43 31 -72 64
-192 109 -289 109 -36 0 -73 -5 -81 -10z m50 -76 c15 -39 1 -48 -26 -19 -25
27 -24 45 2 45 8 0 19 -12 24 -26z"/>
<path d="M1980 4228 c0 -21 -4 -38 -10 -38 -5 0 -10 9 -10 19 0 26 -25 33 -63
16 -17 -7 -40 -16 -51 -19 -30 -10 -2 -32 55 -46 37 -9 54 -9 62 -1 6 6 21 11
34 11 28 0 28 14 3 60 l-19 35 -1 -37z"/>
<path d="M3126 4226 c-17 -33 -16 -56 5 -56 5 0 9 9 9 19 0 11 6 21 12 23 9 3
10 11 3 27 -10 21 -11 21 -29 -13z"/>
<path d="M2890 4235 c7 -8 16 -15 21 -15 5 0 9 7 9 15 0 9 -9 15 -21 15 -18 0
-19 -2 -9 -15z"/>
<path d="M3170 4211 c0 -11 -5 -23 -10 -26 -15 -9 7 -35 29 -35 25 0 111 30
111 39 0 9 -89 41 -112 41 -11 0 -18 -8 -18 -19z"/>
<path d="M480 4159 c0 -5 -3 -8 -7 -6 -5 3 -8 -18 -9 -46 0 -29 -3 -61 -7 -72
-3 -11 -6 -27 -6 -35 -1 -10 -9 -6 -26 13 -32 34 -41 34 -50 0 -8 -35 15 -53
66 -50 44 3 51 8 55 42 1 14 8 50 15 79 6 30 9 61 6 70 -7 18 -37 22 -37 5z"/>
<path d="M1269 4146 c-7 -14 -16 -26 -21 -26 -14 0 -8 -34 11 -59 l18 -23 6
62 c8 71 3 85 -14 46z"/>
<path d="M2014 4140 c-42 -17 -64 -58 -64 -120 0 -91 9 -120 44 -141 29 -18
59 -19 579 -19 l549 0 29 31 c27 29 29 37 29 110 0 91 -14 121 -62 138 -38 13
-1072 14 -1104 1z m149 -47 c16 -9 -16 -33 -44 -33 -38 0 -39 -28 -2 -32 41
-4 43 -36 4 -44 -25 -5 -30 -12 -33 -38 -2 -20 -9 -32 -20 -34 -16 -3 -18 6
-18 92 0 81 2 95 18 99 18 6 81 -1 95 -10z m845 4 c20 -13 -5 -37 -39 -37 -38
0 -39 -28 -2 -32 41 -5 43 -36 4 -44 -43 -9 -41 -34 3 -34 20 0 36 -6 39 -14
8 -22 -2 -26 -60 -26 l-53 0 0 77 c0 91 -11 88 -44 -9 -23 -70 -45 -82 -58
-30 -11 42 -24 41 -43 -4 -20 -47 -35 -35 -59 46 -18 58 -30 73 -39 48 -3 -10
-9 -8 -24 5 -11 9 -25 17 -31 17 -23 0 -12 -18 23 -39 29 -17 35 -26 35 -54 0
-42 -15 -57 -57 -57 -24 0 -37 7 -49 26 -23 34 -4 56 25 30 11 -10 25 -15 30
-11 18 11 12 21 -23 38 -40 19 -53 50 -35 83 10 19 21 24 50 24 21 0 41 -5 45
-11 4 -8 9 -8 17 0 21 21 45 12 52 -19 10 -44 22 -45 39 -5 8 19 20 35 26 35
5 0 18 -19 27 -42 l17 -42 14 42 c12 37 17 41 50 44 64 5 107 3 120 -5z m-742
-66 c13 -35 25 -66 28 -69 9 -8 15 19 18 78 2 42 7 56 20 58 12 2 17 -5 20
-30 2 -28 7 -34 31 -36 21 -3 27 1 27 17 0 30 11 51 25 51 22 0 24 -28 16
-168 -2 -37 -36 -24 -36 13 -1 26 -5 30 -32 33 -29 3 -32 1 -35 -30 -3 -29 -7
-33 -36 -36 -26 -3 -39 3 -57 22 -26 28 -49 26 -66 -5 -12 -23 -39 -25 -39 -4
0 18 49 145 63 163 17 22 30 8 53 -57z"/>
<path d="M1573 4094 c-29 -14 -53 -29 -53 -34 0 -4 12 -12 28 -18 103 -38 148
-56 157 -62 6 -4 28 -7 50 -6 22 1 64 3 93 4 70 3 68 23 -5 47 -32 11 -62 24
-66 30 -6 7 -10 6 -14 -2 -8 -22 -41 -14 -62 15 -48 63 -51 64 -128 26z"/>
<path d="M3436 4079 c-33 -38 -39 -41 -61 -31 -14 7 -27 8 -30 2 -3 -5 -30
-17 -60 -26 -93 -30 -73 -43 85 -58 53 -5 53 -5 40 -21 -17 -20 -7 -28 54 -49
60 -20 222 -23 228 -4 3 7 21 13 42 14 21 0 41 5 44 11 4 6 20 17 35 25 l29
14 -44 13 c-24 7 -103 44 -175 82 -73 38 -137 69 -141 69 -5 0 -25 -19 -46
-41z"/>
<path d="M4756 4023 c10 -40 24 -64 34 -58 8 5 -1 53 -15 75 -13 21 -25 9 -19
-17z"/>
<path d="M1080 3939 c0 -17 33 -54 53 -57 11 -2 21 6 26 20 7 18 4 25 -17 35
-30 16 -62 17 -62 2z"/>
<path d="M4165 3885 c-33 -13 -85 -27 -116 -30 -67 -9 -82 -16 -73 -38 10 -28
64 -20 150 23 43 22 84 40 90 40 6 0 17 7 24 15 17 21 0 18 -75 -10z"/>
<path d="M240 3867 c0 -20 5 -39 10 -42 6 -4 10 -53 10 -114 0 -59 3 -111 7
-115 4 -3 14 -36 23 -72 16 -62 16 -66 -1 -75 -11 -5 -16 -16 -13 -24 4 -8 1
-15 -5 -15 -12 0 -90 66 -104 88 -5 7 -12 10 -18 7 -15 -10 -11 -43 11 -85 11
-22 20 -55 20 -74 0 -34 15 -57 22 -35 3 8 10 6 21 -5 19 -20 21 -34 7 -56 -9
-13 -11 -13 -20 0 -19 29 -10 0 12 -37 12 -21 30 -54 40 -73 28 -53 22 -90
-10 -58 -21 21 -13 -5 28 -86 23 -46 40 -93 40 -113 l0 -33 -37 15 c-20 8 -38
13 -41 10 -10 -10 18 -54 45 -72 15 -10 34 -23 41 -30 7 -7 18 -13 24 -13 24
0 -28 -41 -64 -50 -39 -11 -51 -36 -23 -46 31 -12 16 -34 -22 -34 -53 0 -72
14 -55 40 6 11 12 26 12 34 0 8 6 16 13 19 7 2 -2 12 -20 23 -18 11 -33 25
-33 33 0 7 -8 21 -18 30 -9 9 -23 29 -31 46 -24 55 -32 6 -27 -162 8 -253 14
-303 37 -303 11 0 19 7 19 18 1 34 20 -14 23 -56 1 -22 5 -38 9 -36 8 5 28
-53 20 -61 -4 -3 -2 -9 4 -13 6 -4 24 -32 39 -62 102 -204 341 -440 498 -494
24 -8 61 -24 82 -36 47 -26 68 -20 59 17 -9 43 -54 195 -66 226 -6 15 -18 27
-27 27 -10 0 -29 18 -44 41 -36 54 -34 67 2 27 48 -54 56 -29 26 84 -33 128
-52 174 -80 192 -28 18 -44 81 -26 99 18 18 13 46 -13 80 -54 70 -64 142 -52
344 4 59 0 86 -20 145 -32 95 -42 179 -22 196 12 10 19 3 38 -39 13 -28 28
-53 33 -56 10 -6 3 53 -13 107 -5 19 -10 57 -11 85 l-1 50 -10 -35 c-21 -73
-27 -77 -27 -15 1 91 26 409 28 339 1 -68 17 -124 34 -123 7 0 25 27 42 60 45
94 48 96 79 76 32 -21 33 -35 3 -46 -18 -7 -27 -28 -52 -122 -25 -97 -29 -137
-32 -264 -2 -82 -5 -156 -8 -163 -2 -7 4 -35 14 -62 20 -53 3 -63 -19 -10 -13
32 -40 48 -40 24 0 -27 72 -233 85 -244 9 -8 16 1 29 35 10 25 21 45 25 45 5
0 26 26 48 58 32 47 38 63 31 81 -9 25 5 223 23 314 13 63 34 80 25 20 -10
-63 -8 -146 2 -188 8 -28 8 -43 0 -53 -9 -10 -8 -16 3 -23 10 -6 18 -3 28 11
12 18 16 18 41 5 27 -14 27 -13 38 23 7 20 16 56 22 79 6 23 15 45 20 48 11 7
14 84 4 109 -8 21 -31 20 -43 -1 -5 -10 -13 -15 -16 -11 -12 12 47 107 92 149
24 21 43 42 43 44 0 3 -13 5 -30 5 -36 0 -36 0 -10 50 32 63 26 80 -15 40
l-35 -34 0 27 c0 22 -4 26 -22 23 -13 -3 -26 -5 -30 -5 -3 -1 -11 -13 -16 -28
-7 -18 -11 -22 -11 -10 -2 34 -69 8 -107 -42 -6 -8 -16 -11 -22 -7 -18 11 -14
41 8 61 41 37 27 59 -75 120 -104 61 -147 69 -153 28 -2 -13 -8 -20 -16 -17
-7 3 -31 -15 -53 -40 -22 -25 -44 -46 -48 -46 -4 0 -15 -10 -25 -22 -29 -37
-34 -14 -17 80 9 48 19 106 22 128 l6 41 -83 48 c-45 27 -90 48 -98 48 -8 0
-21 4 -27 10 -10 7 -13 1 -13 -26z m76 -744 c55 -90 85 -169 87 -233 2 -62 13
-72 34 -29 12 22 13 22 13 4 0 -21 -39 -107 -41 -90 -2 34 -10 52 -29 67 -15
12 -23 35 -29 86 -5 38 -14 78 -20 90 -6 11 -11 29 -11 39 0 10 -9 36 -20 58
-19 37 -24 55 -16 55 1 0 16 -21 32 -47z m147 -204 c-4 -4 -6 13 -3 39 l5 47
3 -39 c2 -21 0 -42 -5 -47z m-46 -191 c-3 -7 -5 -2 -5 12 0 14 2 19 5 13 2 -7
2 -19 0 -25z m13 -55 c12 -21 34 -60 50 -88 16 -27 30 -56 30 -64 0 -8 10 -25
23 -39 20 -21 22 -36 25 -134 3 -72 7 -106 13 -97 8 12 10 12 19 -1 5 -8 10
-25 10 -38 0 -12 9 -40 20 -62 28 -56 25 -66 -10 -28 -25 28 -29 30 -29 13 -1
-39 37 -103 97 -164 33 -33 56 -61 52 -61 -33 0 -217 186 -333 335 -104 134
-137 189 -137 228 0 19 -9 45 -19 59 -25 31 -38 78 -21 78 29 0 50 -22 50 -51
0 -17 9 -48 19 -68 11 -20 22 -44 25 -54 3 -10 19 -23 36 -28 21 -8 30 -17 30
-33 0 -28 35 -67 54 -60 18 7 54 -40 61 -80 6 -29 45 -70 45 -47 0 6 -4 13
-10 16 -5 3 -10 14 -10 24 0 38 -48 137 -118 244 -31 48 -43 75 -39 92 2 14
-2 33 -9 42 -25 33 -17 68 19 85 17 8 33 16 34 17 2 0 12 -16 23 -36z"/>
<path d="M1870 3883 c8 -3 23 -10 33 -15 12 -6 17 -5 17 7 0 10 -10 15 -32 14
-18 0 -26 -3 -18 -6z"/>
<path d="M3213 3883 c-7 -2 -13 -9 -13 -15 0 -7 4 -7 13 0 6 6 26 12 42 15
l30 4 -30 1 c-16 0 -36 -2 -42 -5z"/>
<path d="M4800 3793 c0 -69 -6 -116 -19 -158 -24 -75 -75 -179 -99 -203 -10
-10 -25 -27 -33 -38 -8 -11 -39 -41 -71 -66 -98 -80 -240 -119 -388 -107 -78
7 -116 18 -248 76 -8 3 -10 0 -6 -11 3 -9 10 -16 15 -16 5 0 9 -7 9 -15 0 -8
7 -15 16 -15 12 0 15 -6 11 -21 -4 -16 -3 -18 8 -9 20 17 64 -8 87 -48 10 -18
26 -65 36 -105 20 -77 33 -86 76 -49 18 16 19 16 13 -1 -4 -11 -1 -20 8 -23
20 -8 38 5 27 19 -6 7 -7 30 -3 52 5 31 11 41 29 43 23 4 23 8 26 -155 1 -19
-6 -31 -22 -39 -22 -11 -23 -12 -3 -17 12 -3 29 -20 38 -38 10 -17 31 -48 48
-67 16 -19 36 -50 45 -68 9 -20 19 -31 25 -26 12 8 74 179 82 225 7 35 -10 35
-35 0 -24 -32 -40 -26 -21 8 7 14 13 71 14 140 1 64 5 121 9 128 8 12 46 15
46 3 0 -4 -9 -48 -19 -97 -11 -49 -19 -91 -17 -92 2 -2 19 29 39 68 36 72 36
72 48 46 13 -28 4 -86 -36 -227 -11 -37 -14 -75 -10 -115 15 -161 5 -240 -39
-313 -38 -63 -43 -81 -25 -99 18 -18 2 -79 -26 -97 -14 -9 -31 -32 -39 -51
-21 -49 -70 -245 -63 -251 9 -10 47 7 47 20 0 15 28 42 35 34 9 -8 -58 -89
-80 -98 -18 -7 -29 -32 -61 -145 -32 -116 -36 -138 -24 -146 20 -13 55 -7 55
9 0 15 31 34 97 57 145 51 361 262 450 440 17 33 39 72 49 86 10 15 20 35 22
45 7 35 26 74 37 74 5 0 10 11 10 24 0 13 7 29 15 36 9 7 15 29 15 54 0 22 7
59 15 81 15 43 20 224 8 310 l-6 48 -24 -48 c-12 -27 -23 -54 -23 -60 0 -15
-56 -65 -64 -58 -3 4 -6 -8 -6 -25 0 -32 14 -44 23 -19 4 9 7 9 17 0 16 -15
-4 -45 -25 -37 -7 3 -16 1 -20 -5 -7 -12 -55 -15 -55 -4 0 4 12 17 28 29 l27
22 -30 7 c-84 18 -107 60 -52 93 19 11 42 35 51 52 20 40 20 40 1 40 -8 0 -15
-4 -15 -10 0 -5 -11 -10 -25 -10 -36 0 -33 40 10 127 39 79 42 93 20 93 -8 0
-15 7 -15 15 0 14 18 53 30 65 15 15 60 121 60 141 0 48 12 109 21 103 5 -3 9
3 9 13 0 11 5 24 10 29 6 6 7 20 3 32 -8 21 -10 20 -63 -23 -58 -46 -72 -53
-69 -32 4 31 -1 38 -19 28 -18 -9 -18 -7 -8 29 5 22 14 40 18 40 4 0 8 18 8
40 0 29 4 40 15 40 18 0 19 -16 3 -75 -7 -24 -9 -48 -5 -52 14 -13 25 13 31
72 3 33 8 78 10 100 5 37 2 30 -9 -22 -4 -15 -10 -20 -20 -17 -12 5 -15 30
-15 133 0 127 -6 151 -37 151 -10 0 -13 -24 -13 -97z m104 -498 c3 -8 1 -15
-4 -15 -6 0 -10 7 -10 15 0 8 2 15 4 15 2 0 6 -7 10 -15z m-348 -112 c-10 -10
-19 5 -10 18 6 11 8 11 12 0 2 -7 1 -15 -2 -18z m270 -60 c-24 -48 -54 -145
-61 -203 -8 -60 -28 -92 -52 -83 -13 5 -13 2 -4 -15 22 -41 11 -55 -14 -18
-14 20 -25 49 -24 64 1 26 1 26 7 4 4 -13 10 -23 15 -23 4 1 12 1 17 1 6 0 8
10 4 24 -10 42 41 181 100 271 24 37 34 20 12 -22z m-169 -190 c-3 -10 -5 -4
-5 12 0 17 2 24 5 18 2 -7 2 -21 0 -30z m63 -214 c0 -13 10 -23 30 -30 24 -9
30 -17 30 -39 0 -16 -5 -32 -11 -36 -7 -4 -9 -23 -5 -51 4 -32 2 -45 -8 -49
-14 -5 -106 -145 -106 -161 0 -5 -5 -14 -12 -21 -6 -6 -13 -17 -14 -24 -2 -7
-10 -34 -18 -60 -9 -28 -11 -48 -5 -48 5 0 12 14 16 30 3 17 9 30 14 30 5 0 9
6 9 13 0 16 33 49 46 46 24 -4 33 4 53 45 11 25 29 47 40 51 25 8 62 86 65
140 2 35 5 40 26 37 33 -3 33 -5 15 -48 -9 -22 -18 -47 -20 -57 -9 -41 -19
-64 -46 -104 -16 -23 -29 -45 -29 -49 0 -24 -251 -307 -332 -375 -75 -63 -100
-64 -31 -1 54 48 123 152 123 184 0 10 7 18 17 18 14 0 15 2 4 13 -10 10 -16
7 -32 -13 -10 -14 -25 -32 -32 -40 -8 -8 -17 -23 -20 -32 -4 -10 -11 -18 -16
-18 -5 0 4 26 20 57 16 31 29 67 29 79 0 35 10 53 26 47 8 -3 14 -1 14 3 1 5
2 55 3 112 3 92 5 104 25 118 12 8 22 22 22 30 0 18 31 80 65 130 14 20 25 50
25 65 0 16 5 29 10 29 6 0 10 -9 10 -21z m-279 -682 c-10 -9 -11 -8 -5 6 3 10
9 15 12 12 3 -3 0 -11 -7 -18z"/>
<path d="M1657 3822 c-65 -32 -114 -61 -110 -65 3 -4 22 -7 42 -7 21 0 43 -8
55 -19 19 -18 29 -19 96 -11 41 5 98 14 125 21 28 6 65 12 82 13 37 1 107 51
97 68 -4 6 -24 8 -48 5 -49 -7 -127 8 -178 34 -21 11 -39 19 -40 19 -2 0 -56
-26 -121 -58z"/>
<path d="M3305 3861 c-43 -24 -130 -42 -174 -35 -23 4 -41 2 -45 -4 -8 -13 59
-66 73 -58 5 4 44 -5 87 -19 82 -27 219 -35 226 -14 2 6 35 14 73 19 71 8 144
36 128 50 -4 4 -55 15 -113 24 -58 10 -124 26 -148 37 -51 23 -68 23 -107 0z"/>
<path d="M766 3839 c-13 -20 -13 -25 4 -58 38 -71 40 -70 40 7 0 78 -14 94
-44 51z"/>
<path d="M2345 3822 c-2 -2 -56 -4 -119 -4 -66 1 -116 -3 -116 -9 0 -5 12 -9
28 -10 l27 -1 -25 -7 c-65 -20 -151 -73 -161 -99 -20 -50 -26 -57 -64 -77 -46
-24 -57 -45 -24 -45 29 0 145 44 203 76 43 24 66 43 104 88 l23 27 40 -50 c43
-54 63 -63 73 -33 3 9 10 27 16 40 8 19 5 25 -30 47 -22 14 -40 30 -40 36 0
17 71 1 96 -22 11 -10 25 -19 31 -19 6 0 32 -24 56 -52 25 -29 58 -61 74 -70
29 -17 31 -16 64 6 19 13 47 42 63 64 15 23 41 45 58 51 17 6 36 17 42 25 13
16 73 29 80 18 8 -13 -7 -29 -34 -37 -14 -4 -31 -12 -37 -17 -15 -12 -18 -58
-4 -58 5 0 11 -9 14 -20 3 -11 9 -20 14 -20 10 1 73 86 73 100 0 22 24 8 61
-34 55 -63 185 -129 278 -143 44 -7 38 14 -11 39 -25 13 -41 32 -52 58 -17 42
-61 80 -120 105 -36 15 -37 17 -20 30 17 13 3 15 -111 16 -339 4 -546 5 -550
1z"/>
<path d="M3724 3804 c-7 -29 41 -164 58 -164 6 0 7 7 2 18 -12 29 -10 77 4 75
7 -2 12 7 12 21 0 14 5 28 10 31 16 10 1 25 -26 25 -13 0 -24 5 -24 10 0 22
-30 8 -36 -16z"/>
<path d="M4160 3804 c0 -26 38 -125 62 -165 17 -27 32 -49 33 -49 2 0 -1 19
-6 43 -13 61 -58 165 -75 171 -8 3 -14 3 -14 0z"/>
<path d="M3927 3779 c7 -7 15 -10 18 -7 3 3 -2 9 -12 12 -14 6 -15 5 -6 -5z"/>
<path d="M2427 3683 c-14 -13 -6 -21 23 -25 34 -5 37 -1 13 18 -21 15 -27 17
-36 7z"/>
<path d="M1135 3670 c-3 -5 1 -10 9 -10 9 0 16 5 16 10 0 6 -4 10 -9 10 -6 0
-13 -4 -16 -10z"/>
<path d="M2690 3670 c0 -5 5 -10 11 -10 5 0 7 5 4 10 -3 6 -8 10 -11 10 -2 0
-4 -4 -4 -10z"/>
<path d="M4059 3642 c11 -22 21 -48 21 -57 0 -9 7 -29 15 -44 13 -26 13 -30 0
-41 -12 -10 -15 -9 -15 4 0 9 -4 16 -10 16 -5 0 -10 6 -10 13 0 7 -9 18 -20
25 -20 12 -19 10 3 -35 13 -26 27 -60 30 -74 9 -34 25 -41 112 -45 51 -2 86 3
130 18 78 26 92 39 79 75 -13 37 -34 35 -59 -4 -19 -30 -49 -43 -57 -25 -1 5
-21 20 -42 35 -37 24 -40 25 -52 9 -12 -15 -13 -14 -14 10 0 29 -67 119 -109
147 l-23 15 21 -42z"/>
<path d="M1280 3650 c0 -14 107 -126 114 -119 10 9 -27 99 -40 99 -6 0 -17 7
-24 15 -14 17 -50 21 -50 5z"/>
<path d="M1188 3633 c-28 -7 -21 -37 15 -71 48 -46 77 -88 77 -109 0 -20 27
-37 83 -53 20 -7 27 -5 27 5 0 7 2 19 5 27 3 7 -20 45 -51 83 -101 126 -107
131 -156 118z"/>
<path d="M226 3584 c8 -53 30 -119 36 -108 8 13 -17 123 -30 136 -8 8 -10 1
-6 -28z"/>
<path d="M590 3343 c0 -22 2 -25 10 -13 13 20 13 40 0 40 -5 0 -10 -12 -10
-27z"/>
<path d="M1126 3214 c-30 -30 -37 -51 -24 -78 6 -14 14 -26 18 -26 11 0 51
101 44 111 -8 13 -21 11 -38 -7z"/>
<path d="M1052 3056 c-6 -13 -14 -40 -18 -60 -6 -35 -5 -36 17 -28 33 12 54
52 45 85 -8 34 -29 35 -44 3z"/>
<path d="M4041 3058 c2 -13 0 -28 -4 -34 -4 -7 0 -17 8 -24 8 -7 15 -9 15 -4
0 4 7 -1 15 -12 19 -25 19 -12 -2 47 -18 51 -37 66 -32 27z"/>
<path d="M971 2952 c-1 -9 -11 -11 -33 -7 -27 5 -36 2 -46 -15 -16 -26 -8 -40
22 -40 34 0 69 32 63 55 -2 11 -5 14 -6 7z"/>
<path d="M4140 2933 c0 -28 80 -58 94 -34 3 4 -1 17 -9 27 -15 22 -85 27 -85
7z"/>
<path d="M21 2784 c-9 -20 -9 -30 0 -41 15 -17 29 -1 29 34 0 32 -15 36 -29 7z"/>
<path d="M3985 2780 c-3 -5 -2 -10 4 -10 5 0 13 5 16 10 3 6 2 10 -4 10 -5 0
-13 -4 -16 -10z"/>
<path d="M960 2765 c-19 -7 -45 -14 -56 -14 -19 -1 -22 -9 -28 -77 -9 -102 0
-157 33 -190 23 -23 32 -25 71 -21 25 3 76 15 113 27 57 18 67 24 62 38 -4 9
-11 33 -16 52 -15 63 -57 137 -96 169 -21 17 -40 31 -43 30 -3 0 -21 -7 -40
-14z"/>
<path d="M4074 2745 c-43 -35 -76 -99 -100 -188 -9 -37 -10 -49 -1 -52 46 -16
140 -39 178 -42 42 -4 48 -2 66 24 25 34 37 123 28 198 -7 52 -10 57 -46 75
-53 28 -78 25 -125 -15z"/>
<path d="M612 2748 c2 -13 11 -24 20 -26 12 -2 15 2 11 17 -7 29 -35 37 -31 9z"/>
<path d="M4477 2739 c-4 -15 -1 -19 11 -17 21 4 29 38 9 38 -8 0 -17 -9 -20
-21z"/>
<path d="M1150 2451 c-8 -4 -66 -21 -127 -36 -73 -18 -113 -33 -113 -42 0 -15
26 -18 34 -4 3 5 27 12 53 15 27 4 64 13 83 21 19 8 54 19 78 25 23 6 40 15
37 20 -7 12 -25 12 -45 1z"/>
<path d="M3925 2451 c-3 -6 -1 -12 4 -12 18 -2 24 -4 76 -22 78 -26 199 -55
208 -50 11 7 -32 29 -69 35 -32 6 -172 44 -197 53 -8 4 -18 2 -22 -4z"/>
<path d="M1325 2430 c4 -6 11 -8 16 -5 14 9 11 15 -7 15 -8 0 -12 -5 -9 -10z"/>
<path d="M3776 2425 c4 -8 7 -15 9 -15 2 0 5 7 9 15 3 9 0 15 -9 15 -9 0 -12
-6 -9 -15z"/>
<path d="M1257 2424 c-8 -8 1 -24 14 -24 5 0 9 7 9 15 0 15 -12 20 -23 9z"/>
<path d="M3840 2410 c0 -5 4 -10 9 -10 6 0 13 5 16 10 3 6 -1 10 -9 10 -9 0
-16 -4 -16 -10z"/>
<path d="M3712 2363 c-19 -51 -21 -63 -14 -63 8 0 33 82 28 88 -2 1 -8 -10
-14 -25z"/>
<path d="M3962 2371 c-17 -10 -13 -98 5 -112 7 -6 19 -9 28 -6 31 13 24 -14
-10 -34 -24 -14 -44 -38 -60 -74 -26 -55 -65 -193 -65 -230 0 -21 2 -20 36 11
19 19 42 34 50 34 14 0 59 -64 59 -84 0 -5 5 -11 12 -13 7 -3 16 13 23 39 6
24 18 65 26 92 18 65 18 175 -1 200 -20 26 -19 35 3 30 25 -6 41 8 48 42 5 28
2 33 -30 52 -20 12 -43 19 -51 16 -14 -6 -47 18 -45 33 2 11 -13 14 -28 4z"/>
<path d="M1115 2349 c-4 -13 -12 -18 -22 -15 -18 7 -90 -22 -97 -39 -6 -18 31
-75 49 -75 17 0 21 -25 5 -35 -17 -11 -11 -147 9 -211 10 -32 22 -71 25 -86 9
-39 18 -35 41 17 11 25 27 47 36 50 20 7 65 -16 84 -41 7 -11 16 -17 18 -14 7
7 -38 180 -56 222 -9 18 -18 42 -21 53 -3 11 -24 30 -47 43 -42 24 -44 36 -6
37 16 0 23 7 24 25 2 14 6 40 9 58 6 29 4 32 -19 32 -17 0 -28 -7 -32 -21z"/>
<path d="M1190 2349 c0 -9 7 -30 15 -45 12 -23 15 -25 15 -9 -1 25 -29 77 -30
54z"/>
<path d="M1280 2340 c0 -11 5 -20 10 -20 6 0 10 9 10 20 0 11 -4 20 -10 20 -5
0 -10 -9 -10 -20z"/>
<path d="M3765 2350 c3 -5 8 -10 11 -10 2 0 4 5 4 10 0 6 -5 10 -11 10 -5 0
-7 -4 -4 -10z"/>
<path d="M3820 2346 c0 -8 5 -18 10 -21 6 -3 10 3 10 14 0 12 -4 21 -10 21 -5
0 -10 -6 -10 -14z"/>
<path d="M3916 2341 c-14 -23 -25 -61 -16 -61 8 0 21 28 26 58 3 14 -2 16 -10
3z"/>
<path d="M935 2320 c-6 -9 11 -50 20 -50 3 0 5 14 5 30 0 29 -13 40 -25 20z"/>
<path d="M4157 2323 c-5 -9 10 -53 18 -53 3 0 5 14 5 30 0 28 -13 40 -23 23z"/>
<path d="M1313 2288 c-21 -33 -31 -82 -22 -105 5 -13 9 -36 9 -50 0 -29 26
-121 40 -143 9 -13 12 -13 21 3 12 20 32 22 59 5 10 -7 22 -10 25 -7 13 14
-57 232 -92 286 -17 26 -28 29 -40 11z"/>
<path d="M3756 2258 c-47 -81 -102 -278 -77 -278 6 0 14 7 17 15 8 20 53 19
60 0 17 -42 55 52 69 167 7 63 -10 138 -31 138 -7 0 -24 -19 -38 -42z"/>
<path d="M850 2234 c-9 -10 -10 -18 -2 -26 12 -12 32 -2 32 17 0 21 -16 26
-30 9z"/>
<path d="M3676 2233 c-6 -14 -5 -15 5 -6 7 7 10 15 7 18 -3 3 -9 -2 -12 -12z"/>
<path d="M4247 2243 c-4 -3 -7 -15 -7 -25 0 -21 25 -24 33 -4 6 16 -16 40 -26
29z"/>
<path d="M961 2224 c0 -11 3 -14 6 -6 3 7 2 16 -1 19 -3 4 -6 -2 -5 -13z"/>
<path d="M802 2213 c2 -9 9 -18 16 -21 18 -6 15 25 -4 32 -11 4 -14 1 -12 -11z"/>
<path d="M4151 2214 c0 -11 3 -14 6 -6 3 7 2 16 -1 19 -3 4 -6 -2 -5 -13z"/>
<path d="M4290 2210 c0 -13 5 -20 13 -17 6 2 12 10 12 17 0 7 -6 15 -12 18 -8
2 -13 -5 -13 -18z"/>
<path d="M5067 2170 c-50 -64 -76 -138 -92 -257 -6 -44 -4 -53 8 -53 23 0 72
73 97 143 12 34 26 71 32 82 5 12 8 49 6 84 l-3 63 -48 -62z"/>
<path d="M0 2151 c0 -41 6 -87 15 -108 8 -19 15 -42 15 -50 0 -8 16 -39 35
-69 19 -30 35 -58 35 -63 0 -10 34 -41 45 -41 4 0 6 33 3 73 -4 55 -11 84 -31
117 -21 36 -24 49 -15 64 8 15 8 21 -1 24 -7 2 -33 31 -57 64 l-44 60 0 -71z"/>
<path d="M841 2152 c-16 -30 -24 -91 -13 -105 5 -6 12 -37 14 -67 5 -51 44
-160 58 -160 3 0 14 16 24 36 15 33 20 36 46 30 22 -4 30 -2 30 8 0 23 -40
145 -50 151 -4 3 -14 22 -21 42 -10 33 -53 82 -71 83 -4 0 -12 -8 -17 -18z"/>
<path d="M4228 2147 c-16 -13 -28 -27 -28 -32 0 -6 -11 -30 -24 -55 -23 -44
-56 -141 -56 -167 0 -9 9 -11 30 -7 26 6 31 3 46 -30 10 -20 21 -36 24 -36 6
0 28 46 49 103 23 60 29 194 10 228 -12 24 -18 23 -51 -4z"/>
<path d="M992 2097 c2 -15 7 -28 13 -28 16 -1 16 16 0 36 -15 19 -15 19 -13
-8z"/>
<path d="M4112 2103 c-6 -11 -7 -25 -3 -32 6 -9 10 -4 14 16 6 34 2 41 -11 16z"/>
<path d="M4950 2085 c0 -8 -4 -23 -9 -33 -11 -23 -30 -78 -44 -126 -23 -87
-149 -316 -233 -426 -25 -32 -39 -59 -34 -64 10 -10 -32 -36 -56 -36 -7 0 -18
-9 -24 -20 -6 -11 -15 -20 -20 -20 -6 0 -19 -9 -30 -20 -11 -11 -24 -20 -30
-20 -16 0 -12 46 5 60 17 14 21 35 5 25 -15 -9 -12 8 6 33 8 12 20 20 25 17 5
-4 9 -1 9 6 0 6 15 25 33 41 l32 30 -30 -5 c-47 -9 -125 -57 -146 -91 -20 -33
-57 -145 -66 -204 -6 -34 -6 -35 23 -28 16 4 40 18 55 32 14 13 30 24 37 24 6
0 23 11 38 25 15 14 31 25 36 25 5 0 8 8 6 17 -2 14 8 19 50 25 29 4 74 16
100 27 26 10 73 26 105 36 32 10 60 22 63 27 3 4 24 17 47 28 35 17 44 18 52
7 5 -7 19 -19 30 -25 18 -10 15 -11 -20 -12 -36 0 -48 -8 -120 -76 -44 -42
-90 -82 -102 -90 -11 -8 -32 -38 -46 -67 -13 -29 -34 -61 -46 -71 l-21 -19 13
34 c8 19 17 47 21 62 l7 28 -63 -6 c-35 -3 -83 -7 -108 -9 -41 -3 -52 -11
-135 -90 -73 -70 -91 -83 -93 -67 -2 10 8 42 22 70 33 63 33 81 2 52 -14 -13
-29 -20 -35 -16 -7 4 -11 54 -11 137 0 121 -1 130 -20 135 -11 3 -25 22 -34
47 -8 22 -17 48 -20 56 -3 8 -5 -9 -4 -39 2 -42 -2 -56 -17 -67 -22 -16 -59
-19 -50 -4 3 6 17 10 31 10 24 0 30 14 16 38 -7 10 -21 7 -65 -13 -61 -29 -77
-51 -27 -40 19 4 30 3 30 -4 0 -6 -11 -11 -24 -11 -13 0 -29 -7 -36 -15 -8
-10 -21 -13 -33 -9 -15 5 -17 3 -11 -7 24 -42 49 -68 68 -73 12 -3 37 -21 56
-40 19 -20 40 -36 45 -36 6 0 19 -17 30 -38 10 -20 29 -49 42 -63 22 -24 22
-27 7 -39 -14 -12 -17 -11 -27 5 -6 11 -28 38 -49 59 -21 21 -57 61 -79 88
-37 43 -79 64 -79 38 0 -22 -40 -7 -144 55 -251 150 -281 161 -322 120 -17
-17 -36 -25 -61 -25 -31 0 -34 -2 -22 -16 22 -27 72 -47 133 -55 50 -6 90 -23
75 -31 -2 -2 -80 -1 -174 2 -118 3 -159 7 -133 13 27 6 36 12 31 22 -3 8 -13
15 -23 15 -10 0 -20 6 -23 14 -3 9 -15 12 -31 9 -30 -6 -34 -19 -8 -26 16 -4
16 -5 0 -6 -10 0 -18 -8 -18 -16 0 -12 -12 -14 -62 -10 -46 4 -57 3 -43 -5 14
-7 1 -8 -45 -3 -36 3 -67 9 -70 13 -3 5 -24 16 -46 26 -24 10 -40 23 -37 30 2
7 -9 20 -26 30 -34 20 -42 39 -12 29 11 -3 33 3 51 14 l33 19 -44 -5 c-24 -2
-56 -9 -71 -15 -39 -14 -80 4 -123 56 -31 38 -35 39 -52 25 -10 -9 -30 -19
-45 -23 -16 -3 -28 -11 -28 -16 0 -6 -7 -10 -15 -10 -14 0 -33 -65 -22 -76 2
-3 17 6 31 19 18 17 34 23 51 19 24 -4 24 -5 8 -17 -27 -20 -10 -27 23 -10 38
20 73 19 81 -2 7 -19 -49 -71 -127 -115 -52 -29 -60 -28 -60 11 0 25 -1 25
-35 -14 -19 -22 -34 -46 -35 -52 0 -21 -20 -14 -20 7 0 10 -6 23 -14 27 -7 4
-18 18 -25 31 -16 29 -31 28 -31 -3 0 -14 -5 -25 -10 -25 -29 0 -156 86 -173
117 -11 19 -7 23 40 34 58 13 109 11 123 -6 16 -20 40 -19 40 1 0 30 -22 56
-63 75 -23 11 -50 25 -59 32 -15 10 -22 6 -49 -26 -17 -21 -47 -44 -67 -53
-32 -13 -40 -13 -74 1 -48 19 -58 19 -58 0 0 -8 9 -15 19 -15 30 0 37 -22 13
-38 -12 -8 -22 -20 -23 -26 0 -6 -27 -24 -59 -40 -48 -23 -68 -28 -105 -24
-25 3 -64 1 -87 -4 -46 -10 -57 -4 -60 33 -2 30 -48 59 -48 30 0 -9 -14 -23
-32 -30 l-33 -14 40 -6 c39 -6 38 -7 -24 -14 -79 -9 -216 -7 -256 3 -28 7 -27
8 12 9 46 1 122 26 138 46 6 6 19 15 30 19 18 7 15 10 -21 26 -23 10 -45 23
-49 29 -17 29 -109 -13 -364 -166 -64 -38 -91 -42 -91 -13 0 18 -3 19 -23 9
-27 -15 -57 -45 -57 -59 0 -5 -9 -10 -20 -10 -11 0 -20 -4 -20 -8 0 -5 -17
-27 -38 -48 -20 -22 -47 -53 -59 -69 -19 -25 -24 -28 -32 -15 -13 18 -13 18
24 66 51 66 140 148 172 158 27 9 63 44 63 61 0 9 -10 15 -24 15 -17 0 -26 7
-30 23 -4 16 -23 32 -58 49 -29 15 -56 24 -60 22 -14 -9 -9 -34 7 -39 8 -3 23
-8 33 -11 9 -4 28 -7 41 -8 13 0 26 -6 28 -12 4 -13 -88 1 -119 17 -19 10 -20
13 -20 74 1 22 -2 31 -4 20 -11 -45 -28 -77 -48 -91 -19 -13 -21 -24 -22 -133
-2 -134 -7 -151 -35 -125 -28 25 -30 15 -9 -46 34 -97 23 -127 -23 -68 -13 18
-49 59 -78 90 l-54 57 -99 11 c-54 6 -101 8 -104 6 -8 -9 18 -70 40 -93 12
-13 18 -26 14 -30 -11 -11 -73 62 -86 101 -7 21 -32 50 -69 80 -32 26 -70 62
-86 81 -15 19 -32 35 -39 35 -7 0 -7 -3 -1 -8 6 -4 17 -27 26 -52 10 -25 20
-53 24 -62 13 -33 -32 -7 -49 28 -9 19 -23 37 -31 40 -13 5 -13 8 0 20 10 10
12 21 6 37 -7 17 -16 21 -40 19 -38 -3 -40 10 -4 33 25 17 28 17 87 -14 73
-37 219 -87 281 -97 35 -5 48 -12 57 -33 7 -14 32 -36 56 -48 24 -12 54 -33
67 -47 14 -15 35 -26 49 -26 30 0 43 16 19 24 -11 4 -19 17 -20 33 -3 42 -40
151 -65 191 -23 37 -105 82 -148 81 -18 0 -21 -2 -9 -7 26 -11 99 -74 111 -95
7 -13 7 -17 0 -13 -23 14 -21 -14 3 -40 52 -56 14 -70 -49 -17 -16 13 -46 33
-67 44 -25 12 -39 26 -39 38 0 11 -6 26 -13 33 -38 39 -124 171 -174 265 -83
158 -93 180 -93 198 0 8 -4 23 -9 33 -5 9 -13 30 -17 46 -11 36 -34 47 -34 16
0 -12 11 -75 25 -142 14 -66 22 -124 19 -129 -3 -5 0 -9 5 -9 6 0 11 -9 11
-19 0 -11 12 -43 26 -73 15 -29 34 -69 43 -88 10 -21 31 -42 50 -51 l34 -16
-44 -6 c-23 -3 -47 -3 -52 0 -4 2 -19 29 -32 58 -17 38 -33 58 -57 71 -18 9
-37 23 -41 30 -4 8 -23 14 -42 14 -19 0 -37 5 -40 10 -8 14 -25 13 -25 -2 0
-6 -7 -19 -15 -28 -14 -15 -13 -19 5 -40 11 -13 19 -29 16 -36 -3 -7 0 -15 7
-18 7 -4 0 -4 -15 -1 -41 8 -35 -14 18 -65 83 -81 170 -230 134 -230 -21 0 -8
-26 24 -47 23 -15 39 -36 50 -69 30 -87 22 -97 -86 -112 -47 -6 -80 -5 -115 4
-26 7 -49 13 -51 14 -2 0 -2 -12 0 -27 5 -43 39 -55 138 -49 47 3 99 8 115 12
23 5 27 4 19 -5 -6 -7 -60 -15 -125 -19 l-114 -7 0 -65 c-1 -45 -6 -73 -18
-90 -9 -13 -17 -39 -17 -56 0 -29 5 -34 45 -50 56 -21 53 -30 -4 -11 l-41 15
0 -34 c0 -27 6 -36 30 -49 16 -8 37 -15 48 -15 10 0 23 -5 29 -11 15 -15 247
-13 275 2 32 17 114 2 197 -38 90 -43 192 -72 218 -62 10 4 33 8 50 8 43 1 59
29 66 109 4 46 10 67 24 77 25 19 35 6 54 -73 18 -72 18 -74 -9 -77 -33 -4
-52 -17 -52 -36 0 -13 7 -19 25 -19 32 0 76 21 68 33 -3 5 8 7 28 3 19 -3 28
-3 22 0 -7 3 -13 14 -13 24 0 21 36 30 122 30 55 0 59 1 56 22 -2 13 -18 29
-43 42 -64 34 -123 76 -140 102 -18 29 -7 31 26 6 13 -11 67 -43 119 -71 86
-48 104 -54 191 -64 99 -11 129 -7 129 16 0 11 -24 15 -99 20 -104 6 -196 33
-168 48 8 5 276 10 594 12 l580 3 55 47 c53 45 78 57 78 38 0 -5 21 -25 48
-44 l47 -35 380 -6 c209 -3 480 -9 603 -12 l223 -7 -43 -19 c-35 -15 -61 -19
-134 -16 -83 3 -92 1 -89 -15 2 -9 6 -21 10 -26 8 -14 67 -25 74 -13 3 5 31
11 61 14 62 5 133 36 234 103 38 25 71 43 73 41 15 -14 -54 -74 -149 -129 -26
-15 -48 -32 -48 -37 0 -15 39 -22 88 -15 57 8 98 -10 96 -41 -1 -16 4 -20 21
-16 12 2 37 -6 56 -17 44 -27 61 -27 57 2 -2 17 -9 22 -35 22 -50 0 -56 13
-33 73 11 29 20 64 20 78 0 22 3 24 22 18 35 -11 47 -34 48 -91 0 -57 4 -61
38 -37 31 22 39 11 13 -17 -25 -27 -20 -34 39 -49 61 -16 102 -14 153 9 194
86 249 101 286 82 11 -6 75 -12 143 -12 117 -1 126 0 191 29 61 28 67 33 67
61 0 16 -6 32 -12 34 -10 4 -10 6 0 6 18 1 15 18 -14 78 -19 42 -24 63 -19 91
14 82 18 76 -70 82 l-80 5 83 5 c68 4 86 9 98 25 21 28 13 51 -16 47 -120 -13
-141 -13 -194 2 -57 17 -57 17 -50 49 10 48 40 103 69 125 22 18 24 23 14 40
-10 17 -5 30 37 97 27 43 73 102 102 131 56 58 63 74 33 74 -31 0 -33 16 -6
48 29 35 31 42 10 42 -8 0 -15 9 -15 20 0 21 -33 29 -45 10 -3 -5 -17 -10 -29
-10 -13 0 -29 -6 -35 -14 -6 -8 -25 -19 -40 -26 -21 -8 -36 -28 -56 -71 -15
-33 -32 -62 -38 -64 -7 -3 -28 -1 -47 4 l-35 8 26 11 c30 12 53 49 93 150 16
39 35 72 42 72 17 0 27 32 13 41 -9 5 -9 14 0 37 7 17 10 35 7 41 -3 5 1 38 9
73 17 72 20 168 5 168 -5 0 -10 -7 -10 -15z m-4489 -632 l24 -26 -40 23 c-52
31 -52 30 -28 30 11 0 30 -12 44 -27z m1114 -13 c7 -12 -37 -31 -84 -36 -19
-2 -39 -8 -45 -14 -5 -5 -15 -10 -20 -10 -6 0 12 15 39 34 50 34 98 45 110 26z
m2075 -20 c33 -17 60 -35 60 -40 0 -14 -17 -12 -48 4 -15 8 -48 20 -74 26 -46
12 -55 19 -41 33 13 14 45 6 103 -23z m-2692 -17 c37 -17 37 -17 10 -20 -29
-4 -68 11 -68 27 0 14 16 12 58 -7z m3220 -7 c-16 -8 -33 -18 -39 -22 -19 -11
-109 -15 -127 -4 -14 7 -10 9 18 10 19 0 53 7 75 15 22 8 54 14 70 14 l30 1
-27 -14z m742 -21 c0 5 3 6 6 2 8 -8 -59 -96 -74 -97 -9 0 -9 7 3 30 8 16 20
42 25 56 9 22 13 24 25 14 8 -7 15 -9 15 -5z m-2596 -14 c16 -3 31 -12 34 -18
3 -10 -30 -13 -142 -13 -140 0 -197 12 -119 25 21 4 43 8 48 10 17 6 148 3
179 -4z m662 -1 c16 0 39 -7 50 -15 17 -14 4 -15 -136 -13 -97 2 -154 7 -153
13 3 18 46 24 128 20 44 -3 94 -5 111 -5z m1854 -100 c0 -5 -5 -10 -11 -10 -5
0 -7 5 -4 10 3 6 8 10 11 10 2 0 4 -4 4 -10z m-4532 -20 c7 -11 11 -20 9 -20
-2 0 -12 9 -22 20 -10 11 -14 20 -9 20 5 0 15 -9 22 -20z m792 4 c0 -9 -23
-37 -52 -62 -28 -26 -68 -73 -88 -105 -23 -37 -39 -53 -43 -45 -13 35 84 178
134 199 16 6 29 15 29 20 0 5 5 9 10 9 6 0 10 -7 10 -16z m3034 -92 c42 -55
68 -122 48 -122 -6 0 -22 21 -37 48 -15 26 -53 70 -84 99 -45 42 -53 54 -42
62 21 13 61 -17 115 -87z m-3754 16 c33 -24 38 -38 15 -38 -15 0 -55 38 -55
52 0 13 9 10 40 -14z m1003 -9 c24 -33 26 -116 4 -150 -15 -22 -15 -27 0 -57
9 -19 20 -29 25 -24 5 5 22 60 39 123 33 123 50 155 67 123 5 -11 20 -57 32
-104 40 -155 44 -156 50 -13 4 113 7 128 23 131 13 3 24 -11 44 -57 14 -34 30
-61 35 -61 4 0 20 27 35 60 14 33 31 60 38 60 28 0 35 -26 36 -135 0 -103 1
-108 13 -75 8 19 18 53 24 75 46 171 54 173 96 25 8 -30 22 -77 30 -105 l15
-50 0 117 c1 64 4 123 7 132 4 11 19 16 51 16 38 0 50 -5 78 -33 32 -32 55
-88 55 -134 0 -33 20 -28 21 5 1 39 42 155 56 159 7 3 20 -24 33 -69 12 -40
30 -100 40 -133 l19 -60 0 120 c1 66 6 127 11 135 15 23 39 2 63 -55 42 -96
46 -98 47 -17 0 57 3 74 16 79 28 11 34 -18 34 -175 0 -151 0 -153 -21 -150
-24 3 -27 8 -63 88 -14 30 -26 53 -26 50 0 -3 -3 -32 -6 -65 -8 -75 -14 -83
-61 -76 -31 5 -39 11 -47 39 -7 27 -14 32 -38 32 -18 0 -31 -6 -34 -17 -18
-58 -23 -64 -45 -52 -15 8 -20 18 -16 35 6 31 2 30 -32 -8 -28 -31 -33 -33
-101 -33 -76 0 -84 4 -95 48 -6 21 -13 27 -36 27 -24 0 -30 -5 -37 -32 -7 -28
-14 -34 -46 -39 -53 -9 -66 8 -66 84 l0 62 -20 -32 c-24 -40 -37 -41 -52 -8
-18 41 -28 29 -28 -34 0 -62 -14 -87 -40 -71 -9 5 -19 5 -26 -1 -15 -12 -42
13 -50 47 -10 39 -50 32 -68 -11 -14 -32 -19 -35 -55 -35 -34 0 -42 4 -61 36
-25 40 -27 40 -33 -1 -3 -24 -9 -30 -28 -30 l-24 0 -3 149 c-3 170 0 179 61
174 30 -2 45 -10 60 -29z m1312 -38 c34 -70 29 -72 71 22 19 42 41 57 54 37 7
-11 11 -11 24 -1 9 7 23 11 31 7 12 -4 15 -26 15 -111 0 -108 9 -145 36 -145
23 0 34 44 34 140 0 49 3 95 6 104 8 20 33 21 40 1 5 -13 8 -13 21 0 8 8 32
15 53 15 56 0 80 -34 80 -114 1 -59 27 -150 29 -99 1 12 5 32 10 45 5 13 17
53 27 91 13 50 21 67 34 67 14 0 24 -22 45 -102 36 -139 36 -137 45 -113 4 11
5 54 3 96 -5 103 6 129 52 129 25 0 44 -8 60 -24 35 -35 40 -69 20 -135 -14
-46 -15 -63 -6 -80 7 -11 16 -21 21 -21 10 0 9 -3 46 135 14 55 31 106 36 113
14 17 34 -1 41 -36 10 -55 49 -187 58 -196 5 -6 9 36 9 111 0 67 4 124 9 127
20 13 40 -7 43 -42 l3 -37 29 43 c30 45 58 52 64 18 2 -11 -11 -48 -29 -83
l-34 -63 33 -59 c39 -72 42 -101 10 -101 -15 0 -32 13 -48 38 l-25 37 -3 -30
c-6 -48 -18 -54 -94 -46 -4 1 -11 16 -16 34 -7 27 -13 32 -37 32 -24 0 -31 -6
-40 -30 -12 -38 -18 -42 -57 -39 -31 2 -67 35 -68 62 0 26 -18 10 -24 -23 -6
-31 -10 -35 -34 -33 -15 1 -33 -1 -39 -5 -14 -9 -29 10 -38 46 -9 36 -60 40
-68 5 -4 -13 -13 -32 -22 -43 -15 -20 -15 -20 -30 0 -15 18 -16 18 -44 2 -34
-20 -82 -22 -99 -5 -7 7 -12 32 -13 58 -1 31 -3 38 -7 22 -11 -36 -61 -92 -83
-92 -27 0 -79 53 -79 79 0 40 -19 21 -22 -21 -2 -36 -7 -44 -25 -46 -22 -3
-23 0 -23 69 0 62 -2 70 -15 59 -8 -7 -15 -18 -15 -25 0 -26 -29 -24 -49 3
l-20 27 -1 -55 c0 -63 -10 -83 -36 -78 -17 3 -19 15 -22 143 -1 77 0 150 3
163 10 39 37 21 70 -47z m2081 42 c0 -11 7 -19 21 -21 12 -2 24 -10 27 -19 5
-13 0 -15 -36 -9 -42 7 -68 21 -68 37 0 5 7 9 15 9 8 0 15 5 15 10 0 6 6 10
14 10 8 0 13 -8 12 -17z m-4436 -38 c-7 -8 -22 -15 -33 -15 -20 0 -20 0 -1 15
27 20 51 20 34 0z m370 -44 c14 -27 13 -58 -2 -64 -8 -2 2 -13 22 -25 l35 -22
-32 0 c-21 0 -36 6 -42 18 -6 11 -23 19 -48 20 -37 3 -157 20 -198 28 -11 2
-36 7 -55 10 l-35 5 54 -51 c44 -40 51 -50 34 -50 -12 0 -24 -6 -26 -12 -3 -7
-6 1 -6 17 -1 24 -7 33 -31 42 -30 11 -60 57 -46 71 4 4 53 8 109 9 56 1 127
6 157 11 85 15 98 14 110 -7z m3866 -2 c13 -4 46 -1 81 8 57 14 61 14 97 -8
24 -14 35 -27 32 -36 -3 -8 -6 -18 -6 -23 0 -5 -16 -14 -36 -20 l-37 -12 6
-69 c3 -38 3 -69 -1 -69 -4 0 -16 7 -26 15 -17 13 -18 15 -3 15 22 0 24 65 2
74 -11 4 -2 17 33 50 53 51 47 55 -47 32 -65 -16 -231 -29 -255 -20 -19 7 -22
54 -3 73 13 13 120 7 163 -10z m-3696 -80 c0 -5 -9 -9 -20 -9 -19 0 -27 20
-13 33 7 8 33 -11 33 -24z m3380 16 c0 -8 -7 -15 -15 -15 -16 0 -20 12 -8 23
11 12 23 8 23 -8z m146 -44 c-10 -16 -46 -13 -46 3 0 16 30 27 44 15 4 -4 5
-12 2 -18z m-3486 9 c0 -5 -2 -10 -4 -10 -3 0 -8 5 -11 10 -3 6 -1 10 4 10 6
0 11 -4 11 -10z m3999 -6 c2 -2 -12 -4 -32 -4 -20 0 -37 4 -37 10 0 8 58 3 69
-6z m-4158 -56 c-26 -21 -55 -24 -49 -5 6 16 49 37 62 30 5 -3 -1 -14 -13 -25z
m3623 7 c3 -8 0 -17 -5 -21 -14 -8 -43 21 -35 35 8 13 33 4 40 -14z m-3815
-27 c12 -7 21 -16 21 -19 0 -13 -36 2 -66 27 l-29 24 27 -9 c15 -6 36 -16 47
-23z m313 5 c26 -25 29 -25 46 -10 24 22 35 21 57 -3 16 -18 16 -20 1 -35 -9
-9 -16 -27 -16 -40 0 -13 -11 -32 -25 -43 -13 -11 -22 -22 -18 -25 7 -7 -33
-1 -46 7 -5 3 -6 26 -4 50 6 51 -10 66 -71 64 -20 -1 -39 1 -41 4 -5 5 71 56
84 58 3 0 17 -12 33 -27z m-444 -24 c14 0 14 -2 2 -6 -8 -3 -20 -12 -27 -20
-10 -13 -11 -10 -9 13 7 53 9 59 13 37 2 -13 12 -23 21 -24z m3875 6 c20 -14
17 -15 -41 -15 l-63 0 18 24 c19 25 40 23 86 -9z m-3653 -21 c48 -19 54 -39 9
-30 -17 3 -40 6 -50 6 -12 0 -19 7 -19 20 0 24 8 25 60 4z m3830 -2 c0 -7 -57
-32 -73 -32 -18 0 -4 19 21 28 34 13 52 14 52 4z m-3720 -94 c0 -20 -82 -48
-139 -48 -72 0 -86 -15 -36 -36 21 -8 34 -18 31 -21 -8 -9 -116 18 -116 29 0
4 -8 8 -17 8 -29 1 -187 56 -190 67 -5 15 101 23 144 11 21 -6 59 -7 88 -3 27
4 85 8 128 10 43 1 80 5 84 9 7 6 23 -12 23 -26z m3604 23 c8 -12 263 -21 300
-10 34 10 140 -7 131 -21 -3 -4 -31 -16 -63 -25 -31 -9 -67 -21 -80 -26 -13
-5 -28 -6 -34 -3 -6 4 -16 1 -22 -7 -17 -21 -80 -40 -105 -31 -18 7 -15 9 24
21 25 7 45 16 45 20 0 3 -28 7 -62 9 -73 3 -178 31 -178 47 0 12 20 35 31 35
4 0 10 -4 13 -9z m-3559 -21 c3 -5 1 -10 -4 -10 -6 0 -11 5 -11 10 0 6 2 10 4
10 3 0 8 -4 11 -10z m4260 -90 c-11 -5 -29 -9 -40 -9 l-20 0 20 9 c11 5 29 9
40 9 l20 0 -20 -9z m-4740 -24 c11 -2 -29 -4 -90 -4 -60 -1 -115 2 -122 6 -11
7 166 5 212 -2z m65 4 c0 -5 -10 -10 -22 -9 -22 0 -22 1 -3 9 11 5 21 9 23 9
1 1 2 -3 2 -9z m4345 0 c17 -7 14 -9 -13 -9 -20 -1 -31 3 -27 9 7 12 13 12 40
0z m255 0 c-8 -5 -64 -9 -125 -8 l-110 2 115 6 c63 3 120 7 125 8 6 1 3 -3 -5
-8z m-4327 -7 c-7 -2 -19 -2 -25 0 -7 3 -2 5 12 5 14 0 19 -2 13 -5z"/>
<path d="M1320 1086 c0 -17 5 -26 16 -26 10 0 14 7 12 22 -5 32 -28 35 -28 4z"/>
<path d="M2050 1025 l0 -86 27 3 c21 2 29 12 42 46 15 41 14 45 -4 80 -12 23
-29 38 -42 40 -22 3 -23 1 -23 -83z"/>
<path d="M2171 964 c0 -11 3 -14 6 -6 3 7 2 16 -1 19 -3 4 -6 -2 -5 -13z"/>
<path d="M3078 1104 c-11 -10 3 -34 19 -34 8 0 13 7 11 17 -3 18 -20 27 -30
17z"/>
<path d="M3416 1103 c-12 -12 -6 -43 9 -43 8 0 15 9 15 19 0 21 -13 34 -24 24z"/>
<path d="M3086 983 c-14 -15 -5 -43 14 -43 13 0 20 7 20 19 0 19 -23 35 -34
24z"/>
<path d="M3725 1930 c-3 -5 -1 -10 4 -10 6 0 11 5 11 10 0 6 -2 10 -4 10 -3 0
-8 -4 -11 -10z"/>
<path d="M1151 1908 c-10 -25 -5 -41 10 -33 17 11 21 -23 5 -48 -9 -13 -14
-32 -10 -41 4 -9 2 -16 -4 -14 -15 5 -14 -10 4 -37 27 -42 29 -106 5 -145 -24
-40 -26 -57 -9 -97 11 -27 12 -25 24 42 7 39 13 94 13 123 1 37 5 54 16 58 21
9 19 32 -5 39 -27 9 -25 22 3 21 27 -1 26 14 -6 97 -24 62 -33 69 -46 35z"/>
<path d="M3922 1877 c-26 -61 -28 -93 -6 -101 16 -6 54 9 54 22 -1 4 -7 18
-15 32 -20 35 -18 50 5 50 17 0 18 3 8 25 -6 14 -14 25 -17 25 -3 0 -16 -24
-29 -53z"/>
<path d="M975 1830 c10 -11 20 -20 22 -20 1 0 3 9 3 20 0 14 -7 20 -22 20 -20
0 -21 -1 -3 -20z"/>
<path d="M4120 1830 c0 -11 3 -20 8 -20 4 0 13 9 20 20 11 18 10 20 -8 20 -13
0 -20 -7 -20 -20z"/>
<path d="M3945 1768 c-33 -19 -46 -42 -29 -51 9 -5 14 -25 15 -55 0 -26 6 -81
13 -122 12 -71 14 -73 25 -47 15 39 14 52 -9 97 -25 50 -25 96 0 138 31 50 26
63 -15 40z"/>
<path d="M3648 1723 c7 -3 16 -2 19 1 4 3 -2 6 -13 5 -11 0 -14 -3 -6 -6z"/>
<path d="M1329 1655 c-1 -14 -7 -45 -14 -72 -9 -39 22 -27 35 13 10 31 10 39
-4 52 -9 9 -16 12 -17 7z"/>
<path d="M3772 1648 c-16 -16 -15 -34 4 -63 22 -34 33 -23 24 25 -9 48 -13 53
-28 38z"/>
<path d="M2525 1627 c-16 -12 -31 -25 -33 -29 -2 -5 -8 -8 -13 -8 -6 0 -8 4
-4 10 5 8 -52 -6 -64 -16 -2 -2 12 -11 30 -20 19 -9 48 -35 64 -57 44 -60 47
-59 111 21 14 17 32 32 40 32 8 0 14 4 14 9 0 21 -13 41 -26 41 -8 0 -14 6
-14 13 0 8 -3 7 -9 -3 -6 -8 -7 -19 -4 -25 3 -5 -9 4 -28 22 l-34 32 -30 -22z"/>
<path d="M618 1628 c-9 -25 4 -43 40 -60 20 -10 38 -15 41 -12 3 3 -3 22 -14
42 -20 38 -59 55 -67 30z"/>
<path d="M2325 1630 c-5 -9 6 -15 63 -35 23 -8 2 15 -28 30 -18 9 -31 11 -35
5z"/>
<path d="M4447 1629 c-23 -13 -50 -67 -43 -85 8 -20 106 51 106 77 0 21 -33
26 -63 8z"/>
<path d="M2722 1614 c-16 -8 -20 -14 -12 -19 7 -4 19 0 28 9 21 20 13 26 -16
10z"/>
<path d="M1371 1568 c-16 -45 -81 -100 -81 -68 0 18 -19 11 -31 -11 -19 -36 4
-43 46 -15 21 14 42 26 47 26 6 0 61 32 97 57 2 2 -4 12 -14 23 -27 30 -51 25
-64 -12z m29 -8 c0 -5 -5 -10 -11 -10 -5 0 -7 5 -4 10 3 6 8 10 11 10 2 0 4
-4 4 -10z"/>
<path d="M3688 1581 c-10 -10 -18 -20 -18 -23 0 -3 8 -8 18 -12 9 -3 31 -14
47 -25 112 -72 170 -84 129 -27 -22 29 -34 33 -34 11 0 -25 -28 -17 -51 15
-12 16 -25 27 -29 25 -4 -3 -8 1 -7 8 2 50 -22 62 -55 28z"/>
<path d="M740 1566 c0 -20 25 -66 36 -66 27 0 -1 69 -28 70 -5 0 -8 -2 -8 -4z"/>
<path d="M4305 1551 c-75 -42 -71 -35 -45 -71 13 -19 26 -55 30 -89 4 -31 8
-42 9 -25 0 16 5 34 10 40 6 5 14 27 19 49 6 22 17 57 26 78 15 35 15 37 -1
36 -10 -1 -31 -9 -48 -18z"/>
<path d="M2370 1466 c0 -2 7 -9 15 -16 12 -10 15 -10 15 4 0 9 -7 16 -15 16
-8 0 -15 -2 -15 -4z"/>
<path d="M785 1438 c4 -13 10 -39 14 -58 l7 -35 6 50 c4 33 2 52 -5 57 -21 14
-29 8 -22 -14z"/>
<path d="M1632 633 c-18 -9 -44 -31 -58 -48 -23 -30 -24 -39 -24 -166 0 -155
11 -184 79 -219 40 -20 54 -20 931 -20 877 0 891 0 931 20 68 35 79 64 79 218
0 152 -9 176 -80 212 -38 19 -62 20 -932 20 -806 0 -896 -2 -926 -17z m116
-57 c16 -9 15 -41 -1 -54 -6 -6 -28 -12 -47 -14 -27 -2 -36 -8 -38 -25 -3 -19
2 -22 35 -25 35 -3 38 -6 41 -35 3 -30 1 -33 -25 -33 -43 0 -52 -11 -55 -70
-3 -47 -6 -55 -23 -55 -19 0 -20 8 -23 149 -1 90 1 153 8 161 11 13 107 14
128 1z m487 4 c14 -5 29 -20 34 -32 9 -23 9 -23 16 5 6 21 13 27 28 25 17 -2
24 -16 35 -67 16 -73 28 -70 46 10 15 71 40 78 56 17 6 -24 16 -54 22 -68 10
-23 12 -21 28 40 15 61 18 65 46 66 16 0 37 4 47 9 18 7 100 0 118 -11 13 -8
11 -40 -4 -52 -6 -6 -28 -12 -47 -14 -27 -2 -36 -8 -38 -25 -3 -19 1 -23 25
-23 39 0 55 -13 51 -41 -2 -19 -11 -25 -38 -29 -29 -4 -35 -9 -35 -30 0 -22 5
-26 42 -31 24 -3 46 -8 49 -12 4 -4 13 -2 21 5 20 16 47 -12 39 -40 -6 -18
-15 -20 -104 -18 l-97 1 -3 118 c-2 108 -14 150 -27 95 -39 -172 -51 -213 -65
-216 -16 -3 -40 64 -40 109 0 40 -24 12 -39 -47 -25 -93 -41 -80 -78 66 -17
69 -32 117 -32 108 -2 -32 -61 -35 -61 -2 0 17 -36 19 -46 2 -4 -6 5 -21 22
-34 69 -54 74 -61 74 -109 0 -38 -5 -52 -30 -76 -34 -35 -61 -33 -97 7 -29 32
-31 84 -4 84 10 0 26 -12 36 -26 13 -20 19 -23 31 -13 22 18 17 37 -15 54 -44
22 -71 62 -71 104 0 51 24 82 77 100 1 1 13 -3 28 -9z m705 -5 c28 -15 50 -42
50 -64 0 -18 -37 -22 -66 -6 -24 12 -32 12 -49 1 -46 -30 -57 -91 -25 -143 23
-38 61 -44 92 -16 17 15 20 16 35 0 15 -15 15 -19 2 -43 -7 -15 -29 -34 -47
-42 -31 -15 -36 -15 -69 3 -99 54 -107 239 -14 302 40 27 52 28 91 8z m228
-19 c13 -12 29 -40 37 -62 15 -44 23 -34 27 36 3 37 6 45 23 45 14 0 28 -16
49 -57 16 -32 32 -58 36 -58 3 0 19 27 35 60 23 48 33 60 50 58 19 -3 20 -9
20 -158 0 -153 0 -155 -22 -158 -22 -3 -23 0 -23 67 0 77 -11 96 -30 51 -14
-34 -47 -41 -57 -12 -19 52 -28 44 -33 -29 -4 -66 -7 -74 -25 -74 -17 0 -20 8
-23 58 -3 62 -16 75 -26 26 -9 -48 -57 -89 -103 -89 -47 0 -75 19 -97 64 -21
45 -21 147 1 193 34 72 110 90 161 39z m-1321 12 c5 -7 22 -58 38 -113 49
-170 55 -171 55 -12 0 128 1 137 19 137 23 0 31 -19 31 -76 0 -43 0 -44 34
-44 39 0 46 11 46 77 0 40 2 44 23 41 21 -3 22 -7 25 -128 4 -153 -2 -190 -28
-190 -14 0 -21 10 -26 35 -3 19 -4 44 -1 55 6 24 -15 43 -45 38 -20 -3 -24
-10 -28 -60 -6 -65 -14 -77 -40 -60 -12 7 -21 8 -25 2 -13 -20 -35 -9 -49 25
-24 56 -73 59 -86 5 -7 -31 -37 -50 -49 -31 -9 14 -4 40 27 141 11 36 23 77
26 92 16 71 33 92 53 66z"/>
<path d="M3056 488 c-21 -29 -20 -102 0 -133 20 -31 64 -33 89 -5 26 29 26
111 1 139 -25 28 -70 27 -90 -1z"/>
<path d="M3755 570 c-3 -5 3 -10 14 -10 15 0 19 -5 14 -16 -5 -14 -17 -16 -75
-10 -75 7 -86 0 -74 -49 6 -22 12 -25 47 -25 39 0 190 -58 329 -128 53 -26 60
-27 155 -21 107 7 239 28 320 52 l50 15 -65 1 c-36 0 -89 3 -118 5 -31 3 -62
0 -72 -6 -14 -9 -36 -2 -114 35 -106 51 -116 54 -116 32 0 -27 -20 -16 -74 39
-38 39 -65 57 -97 66 -24 7 -52 16 -61 21 -23 12 -55 11 -63 -1z"/>
<path d="M1255 561 c-33 -9 -125 -50 -111 -51 12 0 -72 -80 -84 -80 -6 0 -13
7 -16 15 -5 13 -8 13 -27 0 -12 -8 -29 -15 -38 -15 -9 0 -44 -14 -78 -31 -49
-25 -67 -29 -84 -22 -13 6 -64 7 -120 4 l-97 -6 46 -23 c29 -14 42 -17 34 -8
-10 13 -7 13 17 6 72 -22 186 -40 268 -41 85 -1 94 0 161 35 39 20 75 36 79
36 4 0 50 18 101 40 57 24 109 40 134 40 34 0 41 4 46 24 8 34 -4 69 -22 62
-8 -3 -41 -8 -74 -12 -44 -5 -65 -3 -77 7 -14 13 -13 15 18 20 l34 6 -40 1
c-22 0 -53 -3 -70 -7z"/>
<path d="M1445 391 c-37 -24 -186 -82 -284 -111 -40 -11 -71 -23 -69 -25 4 -5
226 13 266 21 13 3 20 8 18 13 -3 5 19 19 49 31 51 21 55 25 55 56 0 19 -1 34
-2 34 -2 0 -16 -9 -33 -19z"/>
<path d="M3642 373 c3 -35 6 -39 52 -56 27 -10 54 -24 60 -31 7 -9 55 -17 141
-24 71 -6 130 -10 132 -8 2 1 -57 22 -130 45 -72 24 -160 58 -195 77 l-63 34
3 -37z"/>
<path d="M3640 290 c0 -5 5 -10 10 -10 6 0 10 5 10 10 0 6 -4 10 -10 10 -5 0
-10 -4 -10 -10z"/>
<path d="M1470 275 c7 -9 15 -13 17 -11 7 7 -7 26 -19 26 -6 0 -6 -6 2 -15z"/>
<path d="M1518 141 l-33 -31 48 16 c26 9 46 21 44 27 -7 22 -26 18 -59 -12z"/>
<path d="M3540 160 c-9 -6 4 -17 38 -34 66 -33 72 -33 38 3 -31 32 -57 43 -76
31z"/>
<path d="M1855 113 c4 -10 10 -27 13 -38 3 -11 12 -26 19 -33 7 -7 13 -20 13
-28 0 -8 5 -14 11 -14 6 0 9 17 7 42 -2 32 -10 49 -29 65 -32 27 -44 29 -34 6z"/>
<path d="M2271 121 c-7 -5 -11 -13 -7 -19 12 -20 -11 -21 -29 -2 -20 22 -67
26 -109 10 -45 -17 -28 -28 52 -35 42 -3 129 -12 192 -20 79 -10 116 -11 121
-3 4 7 13 7 27 -1 18 -10 23 -8 33 11 l12 22 9 -23 c7 -20 11 -21 24 -11 11
10 18 10 26 2 14 -14 179 -16 226 -3 18 5 64 11 102 13 39 1 70 5 70 8 0 20
-31 39 -73 45 -38 5 -48 3 -53 -9 -9 -24 -44 -20 -44 4 0 14 -7 20 -24 20 -13
0 -26 -6 -29 -14 -3 -8 -27 -15 -59 -18 -29 -3 -62 -9 -73 -13 -19 -8 -19 -8
-2 12 22 26 13 33 -40 33 -36 0 -45 -4 -52 -22 l-8 -22 -12 22 c-9 18 -21 22
-56 22 -47 0 -57 -13 -32 -39 10 -12 8 -13 -8 -6 -11 4 -45 10 -75 13 -30 3
-60 11 -68 18 -16 16 -22 17 -41 5z"/>
<path d="M1765 110 c3 -5 13 -10 21 -10 8 0 14 5 14 10 0 6 -9 10 -21 10 -11
0 -17 -4 -14 -10z"/>
<path d="M2023 110 c-15 -6 -23 -18 -23 -32 0 -13 -3 -34 -7 -46 -4 -18 -8
-20 -14 -10 -7 10 -9 9 -9 -4 0 -11 8 -18 19 -18 14 0 23 12 34 43 7 23 20 43
28 43 8 1 18 2 23 3 9 1 -13 31 -23 30 -3 0 -16 -4 -28 -9z"/>
<path d="M3245 112 c-16 -11 -49 -82 -42 -89 4 -3 8 -4 10 -2 6 10 46 99 44
99 -1 0 -6 -4 -12 -8z"/>
<path d="M3040 95 c0 -9 9 -15 23 -15 19 0 27 -9 37 -40 11 -32 18 -40 34 -38
12 2 22 11 24 21 3 13 -2 17 -15 15 -14 -2 -19 4 -21 35 -3 36 -4 37 -43 37
-28 0 -39 -4 -39 -15z"/>
</g>
</svg>
